<svg width="439" height="84" viewBox="0 0 439 84" fill="none" xmlns="http://www.w3.org/2000/svg">
<path d="M10.4 15L5.98 8.86L4.1 10.92V15H1.7V0.819999H4.1V7.62L10.2 0.819999H13.36L7.62 7.08L13.42 15H10.4ZM16.0497 9.06H20.8297C20.803 8.44667 20.583 7.93333 20.1697 7.52C19.7697 7.10667 19.1897 6.9 18.4297 6.9C17.7364 6.9 17.1764 7.12 16.7497 7.56C16.323 7.98667 16.0897 8.48667 16.0497 9.06ZM21.0897 11.6L23.0497 12.22C22.7697 13.1133 22.243 13.8533 21.4697 14.44C20.7097 15.0133 19.7697 15.3 18.6497 15.3C17.263 15.3 16.083 14.8267 15.1097 13.88C14.1497 12.9333 13.6697 11.6667 13.6697 10.08C13.6697 8.58667 14.1364 7.36 15.0697 6.4C16.0164 5.44 17.1297 4.96 18.4097 4.96C19.903 4.96 21.0697 5.42 21.9097 6.34C22.7497 7.24667 23.1697 8.47333 23.1697 10.02C23.1697 10.4333 23.1497 10.68 23.1097 10.76H15.9897C16.0164 11.4933 16.283 12.1 16.7897 12.58C17.3097 13.06 17.9297 13.3 18.6497 13.3C19.903 13.3 20.7164 12.7333 21.0897 11.6ZM27.0067 9.06H31.7867C31.7601 8.44667 31.5401 7.93333 31.1267 7.52C30.7267 7.10667 30.1467 6.9 29.3867 6.9C28.6934 6.9 28.1334 7.12 27.7067 7.56C27.2801 7.98667 27.0467 8.48667 27.0067 9.06ZM32.0467 11.6L34.0067 12.22C33.7267 13.1133 33.2001 13.8533 32.4267 14.44C31.6667 15.0133 30.7267 15.3 29.6067 15.3C28.2201 15.3 27.0401 14.8267 26.0667 13.88C25.1067 12.9333 24.6267 11.6667 24.6267 10.08C24.6267 8.58667 25.0934 7.36 26.0267 6.4C26.9734 5.44 28.0867 4.96 29.3667 4.96C30.8601 4.96 32.0267 5.42 32.8667 6.34C33.7067 7.24667 34.1267 8.47333 34.1267 10.02C34.1267 10.4333 34.1067 10.68 34.0667 10.76H26.9467C26.9734 11.4933 27.2401 12.1 27.7467 12.58C28.2667 13.06 28.8867 13.3 29.6067 13.3C30.8601 13.3 31.6734 12.7333 32.0467 11.6ZM38.6438 18.8H36.3438V5.26H38.5838V6.58C38.8371 6.14 39.2371 5.77333 39.7838 5.48C40.3304 5.18667 40.9638 5.04 41.6838 5.04C43.0838 5.04 44.1838 5.52 44.9838 6.48C45.7838 7.42667 46.1838 8.64 46.1838 10.12C46.1838 11.6 45.7638 12.8267 44.9238 13.8C44.0838 14.76 42.9771 15.24 41.6038 15.24C40.9371 15.24 40.3438 15.1133 39.8238 14.86C39.3038 14.6067 38.9104 14.2867 38.6438 13.9V18.8ZM43.8638 10.12C43.8638 9.21333 43.6238 8.48667 43.1438 7.94C42.6638 7.38 42.0304 7.1 41.2438 7.1C40.4704 7.1 39.8371 7.38 39.3438 7.94C38.8638 8.48667 38.6238 9.21333 38.6238 10.12C38.6238 11.04 38.8638 11.78 39.3438 12.34C39.8371 12.9 40.4704 13.18 41.2438 13.18C42.0171 13.18 42.6438 12.9 43.1238 12.34C43.6171 11.78 43.8638 11.04 43.8638 10.12ZM55.695 9.28V15H53.375V0.519999H55.695V6.2C56.3217 5.38667 57.2483 4.98 58.475 4.98C59.6217 4.98 60.5017 5.34 61.115 6.06C61.7283 6.78 62.035 7.70667 62.035 8.84V15H59.715V9.24C59.715 8.58667 59.555 8.06667 59.235 7.68C58.915 7.28 58.4083 7.08 57.715 7.08C57.1017 7.08 56.615 7.28667 56.255 7.7C55.9083 8.11333 55.7217 8.64 55.695 9.28ZM66.4794 9.06H71.2594C71.2327 8.44667 71.0127 7.93333 70.5994 7.52C70.1994 7.10667 69.6194 6.9 68.8594 6.9C68.166 6.9 67.606 7.12 67.1794 7.56C66.7527 7.98667 66.5194 8.48667 66.4794 9.06ZM71.5194 11.6L73.4794 12.22C73.1994 13.1133 72.6727 13.8533 71.8994 14.44C71.1394 15.0133 70.1994 15.3 69.0794 15.3C67.6927 15.3 66.5127 14.8267 65.5394 13.88C64.5794 12.9333 64.0994 11.6667 64.0994 10.08C64.0994 8.58667 64.566 7.36 65.4994 6.4C66.446 5.44 67.5594 4.96 68.8394 4.96C70.3327 4.96 71.4994 5.42 72.3394 6.34C73.1794 7.24667 73.5994 8.47333 73.5994 10.02C73.5994 10.4333 73.5794 10.68 73.5394 10.76H66.4194C66.446 11.4933 66.7127 12.1 67.2194 12.58C67.7394 13.06 68.3594 13.3 69.0794 13.3C70.3327 13.3 71.146 12.7333 71.5194 11.6ZM75.2164 12.36C75.2164 11.5333 75.4831 10.8733 76.0164 10.38C76.5631 9.87333 77.2764 9.55333 78.1564 9.42L80.6564 9.04C81.1364 8.97333 81.3764 8.74 81.3764 8.34C81.3764 7.9 81.2231 7.54667 80.9164 7.28C80.6097 7 80.1497 6.86 79.5364 6.86C78.9497 6.86 78.4831 7.02667 78.1364 7.36C77.7897 7.68 77.5897 8.1 77.5364 8.62L75.4164 8.14C75.5097 7.26 75.9297 6.51333 76.6764 5.9C77.4231 5.27333 78.3697 4.96 79.5164 4.96C80.9297 4.96 81.9697 5.3 82.6364 5.98C83.3164 6.66 83.6564 7.53333 83.6564 8.6V13.44C83.6564 14.08 83.6964 14.6 83.7764 15H81.6164C81.5497 14.8 81.5164 14.3867 81.5164 13.76C80.8764 14.7867 79.8764 15.3 78.5164 15.3C77.5297 15.3 76.7297 15.0133 76.1164 14.44C75.5164 13.8533 75.2164 13.16 75.2164 12.36ZM78.9564 13.48C79.6764 13.48 80.2564 13.2867 80.6964 12.9C81.1497 12.5 81.3764 11.8533 81.3764 10.96V10.52L78.8364 10.9C77.9697 11.0467 77.5364 11.4867 77.5364 12.22C77.5364 12.5667 77.6631 12.8667 77.9164 13.12C78.1697 13.36 78.5164 13.48 78.9564 13.48ZM88.7809 15H86.4609V0.519999H88.7809V15ZM94.7134 2.28V5.26H96.7334V7.32H94.7134V11.84C94.7134 12.2667 94.8134 12.58 95.0134 12.78C95.2134 12.9667 95.5268 13.06 95.9534 13.06C96.2201 13.06 96.4868 13.0333 96.7534 12.98V14.9C96.4068 15.0467 95.9334 15.12 95.3334 15.12C94.4268 15.12 93.7134 14.8667 93.1934 14.36C92.6734 13.84 92.4134 13.1267 92.4134 12.22V7.32H90.6134V5.26H91.1134C91.6068 5.26 91.9801 5.12 92.2334 4.84C92.4868 4.56 92.6134 4.19333 92.6134 3.74V2.28H94.7134ZM101.164 9.28V15H98.8438V0.519999H101.164V6.2C101.79 5.38667 102.717 4.98 103.944 4.98C105.09 4.98 105.97 5.34 106.584 6.06C107.197 6.78 107.504 7.70667 107.504 8.84V15H105.184V9.24C105.184 8.58667 105.024 8.06667 104.704 7.68C104.384 7.28 103.877 7.08 103.184 7.08C102.57 7.08 102.084 7.28667 101.724 7.7C101.377 8.11333 101.19 8.64 101.164 9.28ZM113.19 18.94H110.71L113.05 13.84L108.89 5.26H111.51L114.31 11.42L116.93 5.26H119.39L113.19 18.94ZM130.371 2.5C129.984 2.5 129.644 2.61333 129.351 2.84C129.071 3.05333 128.931 3.43333 128.931 3.98V5.26H131.191V7.28H128.931V15H126.591V7.28H124.891V5.26H126.591V3.92C126.591 2.84 126.904 1.98667 127.531 1.36C128.157 0.733333 128.977 0.419999 129.991 0.419999C130.537 0.419999 130.944 0.486666 131.211 0.619999V2.6C130.971 2.53333 130.691 2.5 130.371 2.5ZM135.09 12.4C135.623 12.9467 136.27 13.22 137.03 13.22C137.79 13.22 138.43 12.9467 138.95 12.4C139.483 11.8533 139.75 11.0933 139.75 10.12C139.75 9.16 139.483 8.41333 138.95 7.88C138.43 7.33333 137.79 7.06 137.03 7.06C136.27 7.06 135.623 7.33333 135.09 7.88C134.57 8.41333 134.31 9.16 134.31 10.12C134.31 11.08 134.57 11.84 135.09 12.4ZM137.03 4.96C138.497 4.96 139.703 5.44667 140.65 6.42C141.61 7.39333 142.09 8.62667 142.09 10.12C142.09 11.6133 141.61 12.8533 140.65 13.84C139.703 14.8133 138.497 15.3 137.03 15.3C135.577 15.3 134.37 14.8133 133.41 13.84C132.463 12.8533 131.99 11.6133 131.99 10.12C131.99 8.62667 132.463 7.39333 133.41 6.42C134.37 5.44667 135.577 4.96 137.03 4.96ZM146.672 12.4C147.205 12.9467 147.852 13.22 148.612 13.22C149.372 13.22 150.012 12.9467 150.532 12.4C151.065 11.8533 151.332 11.0933 151.332 10.12C151.332 9.16 151.065 8.41333 150.532 7.88C150.012 7.33333 149.372 7.06 148.612 7.06C147.852 7.06 147.205 7.33333 146.672 7.88C146.152 8.41333 145.892 9.16 145.892 10.12C145.892 11.08 146.152 11.84 146.672 12.4ZM148.612 4.96C150.079 4.96 151.285 5.44667 152.232 6.42C153.192 7.39333 153.672 8.62667 153.672 10.12C153.672 11.6133 153.192 12.8533 152.232 13.84C151.285 14.8133 150.079 15.3 148.612 15.3C147.159 15.3 145.952 14.8133 144.992 13.84C144.045 12.8533 143.572 11.6133 143.572 10.12C143.572 8.62667 144.045 7.39333 144.992 6.42C145.952 5.44667 147.159 4.96 148.612 4.96ZM157.474 10.1C157.474 11.0333 157.714 11.7867 158.194 12.36C158.674 12.92 159.307 13.2 160.094 13.2C160.854 13.2 161.474 12.9133 161.954 12.34C162.434 11.7667 162.674 11.0133 162.674 10.08C162.674 9.16 162.441 8.42667 161.974 7.88C161.507 7.33333 160.887 7.06 160.114 7.06C159.341 7.06 158.707 7.34 158.214 7.9C157.721 8.44667 157.474 9.18 157.474 10.1ZM164.914 0.519999V13.22C164.914 13.8733 164.947 14.4667 165.014 15H162.794C162.727 14.6267 162.694 14.2067 162.694 13.74C162.454 14.18 162.081 14.54 161.574 14.82C161.067 15.1 160.487 15.24 159.834 15.24C158.447 15.24 157.321 14.7533 156.454 13.78C155.587 12.8067 155.154 11.58 155.154 10.1C155.154 8.67333 155.587 7.46667 156.454 6.48C157.334 5.49333 158.447 5 159.794 5C160.567 5 161.187 5.14 161.654 5.42C162.134 5.7 162.467 6.02667 162.654 6.4V0.519999H164.914ZM178.606 5.2V7.56C178.34 7.52 178.086 7.5 177.846 7.5C176.1 7.5 175.226 8.45333 175.226 10.36V15H172.906V5.26H175.166V6.82C175.393 6.3 175.76 5.89333 176.266 5.6C176.773 5.29333 177.346 5.14 177.986 5.14C178.2 5.14 178.406 5.16 178.606 5.2ZM182.065 9.06H186.845C186.819 8.44667 186.599 7.93333 186.185 7.52C185.785 7.10667 185.205 6.9 184.445 6.9C183.752 6.9 183.192 7.12 182.765 7.56C182.339 7.98667 182.105 8.48667 182.065 9.06ZM187.105 11.6L189.065 12.22C188.785 13.1133 188.259 13.8533 187.485 14.44C186.725 15.0133 185.785 15.3 184.665 15.3C183.279 15.3 182.099 14.8267 181.125 13.88C180.165 12.9333 179.685 11.6667 179.685 10.08C179.685 8.58667 180.152 7.36 181.085 6.4C182.032 5.44 183.145 4.96 184.425 4.96C185.919 4.96 187.085 5.42 187.925 6.34C188.765 7.24667 189.185 8.47333 189.185 10.02C189.185 10.4333 189.165 10.68 189.125 10.76H182.005C182.032 11.4933 182.299 12.1 182.805 12.58C183.325 13.06 183.945 13.3 184.665 13.3C185.919 13.3 186.732 12.7333 187.105 11.6ZM190.802 12.36C190.802 11.5333 191.069 10.8733 191.602 10.38C192.149 9.87333 192.862 9.55333 193.742 9.42L196.242 9.04C196.722 8.97333 196.962 8.74 196.962 8.34C196.962 7.9 196.809 7.54667 196.502 7.28C196.196 7 195.736 6.86 195.122 6.86C194.536 6.86 194.069 7.02667 193.722 7.36C193.376 7.68 193.176 8.1 193.122 8.62L191.002 8.14C191.096 7.26 191.516 6.51333 192.262 5.9C193.009 5.27333 193.956 4.96 195.102 4.96C196.516 4.96 197.556 5.3 198.222 5.98C198.902 6.66 199.242 7.53333 199.242 8.6V13.44C199.242 14.08 199.282 14.6 199.362 15H197.202C197.136 14.8 197.102 14.3867 197.102 13.76C196.462 14.7867 195.462 15.3 194.102 15.3C193.116 15.3 192.316 15.0133 191.702 14.44C191.102 13.8533 190.802 13.16 190.802 12.36ZM194.542 13.48C195.262 13.48 195.842 13.2867 196.282 12.9C196.736 12.5 196.962 11.8533 196.962 10.96V10.52L194.422 10.9C193.556 11.0467 193.122 11.4867 193.122 12.22C193.122 12.5667 193.249 12.8667 193.502 13.12C193.756 13.36 194.102 13.48 194.542 13.48ZM203.587 10.1C203.587 11.0333 203.827 11.7867 204.307 12.36C204.787 12.92 205.421 13.2 206.207 13.2C206.967 13.2 207.587 12.9133 208.067 12.34C208.547 11.7667 208.787 11.0133 208.787 10.08C208.787 9.16 208.554 8.42667 208.087 7.88C207.621 7.33333 207.001 7.06 206.227 7.06C205.454 7.06 204.821 7.34 204.327 7.9C203.834 8.44667 203.587 9.18 203.587 10.1ZM211.027 0.519999V13.22C211.027 13.8733 211.061 14.4667 211.127 15H208.907C208.841 14.6267 208.807 14.2067 208.807 13.74C208.567 14.18 208.194 14.54 207.687 14.82C207.181 15.1 206.601 15.24 205.947 15.24C204.561 15.24 203.434 14.7533 202.567 13.78C201.701 12.8067 201.267 11.58 201.267 10.1C201.267 8.67333 201.701 7.46667 202.567 6.48C203.447 5.49333 204.561 5 205.907 5C206.681 5 207.301 5.14 207.767 5.42C208.247 5.7 208.581 6.02667 208.767 6.4V0.519999H211.027ZM216.359 15H214.059V5.26H216.359V15ZM214.139 2.9C213.845 2.60667 213.699 2.25333 213.699 1.84C213.699 1.42667 213.845 1.07333 214.139 0.779999C214.432 0.473333 214.785 0.319999 215.199 0.319999C215.625 0.319999 215.985 0.466666 216.279 0.76C216.572 1.05333 216.719 1.41333 216.719 1.84C216.719 2.25333 216.572 2.60667 216.279 2.9C215.985 3.19333 215.625 3.34 215.199 3.34C214.785 3.34 214.432 3.19333 214.139 2.9ZM221.672 15H219.352V0.519999H221.672V15ZM227.624 18.94H225.144L227.484 13.84L223.324 5.26H225.944L228.744 11.42L231.364 5.26H233.824L227.624 18.94ZM239.884 12.36C239.884 11.5333 240.151 10.8733 240.684 10.38C241.231 9.87333 241.944 9.55333 242.824 9.42L245.324 9.04C245.804 8.97333 246.044 8.74 246.044 8.34C246.044 7.9 245.891 7.54667 245.584 7.28C245.278 7 244.818 6.86 244.204 6.86C243.618 6.86 243.151 7.02667 242.804 7.36C242.458 7.68 242.258 8.1 242.204 8.62L240.084 8.14C240.178 7.26 240.598 6.51333 241.344 5.9C242.091 5.27333 243.038 4.96 244.184 4.96C245.598 4.96 246.638 5.3 247.304 5.98C247.984 6.66 248.324 7.53333 248.324 8.6V13.44C248.324 14.08 248.364 14.6 248.444 15H246.284C246.218 14.8 246.184 14.3867 246.184 13.76C245.544 14.7867 244.544 15.3 243.184 15.3C242.198 15.3 241.398 15.0133 240.784 14.44C240.184 13.8533 239.884 13.16 239.884 12.36ZM243.624 13.48C244.344 13.48 244.924 13.2867 245.364 12.9C245.818 12.5 246.044 11.8533 246.044 10.96V10.52L243.504 10.9C242.638 11.0467 242.204 11.4867 242.204 12.22C242.204 12.5667 242.331 12.8667 242.584 13.12C242.838 13.36 243.184 13.48 243.624 13.48ZM259.831 5.26L256.011 15H253.691L249.731 5.26H252.291L254.871 12.22L257.391 5.26H259.831ZM260.88 12.36C260.88 11.5333 261.147 10.8733 261.68 10.38C262.227 9.87333 262.94 9.55333 263.82 9.42L266.32 9.04C266.8 8.97333 267.04 8.74 267.04 8.34C267.04 7.9 266.887 7.54667 266.58 7.28C266.274 7 265.814 6.86 265.2 6.86C264.614 6.86 264.147 7.02667 263.8 7.36C263.454 7.68 263.254 8.1 263.2 8.62L261.08 8.14C261.174 7.26 261.594 6.51333 262.34 5.9C263.087 5.27333 264.034 4.96 265.18 4.96C266.594 4.96 267.634 5.3 268.3 5.98C268.98 6.66 269.32 7.53333 269.32 8.6V13.44C269.32 14.08 269.36 14.6 269.44 15H267.28C267.214 14.8 267.18 14.3867 267.18 13.76C266.54 14.7867 265.54 15.3 264.18 15.3C263.194 15.3 262.394 15.0133 261.78 14.44C261.18 13.8533 260.88 13.16 260.88 12.36ZM264.62 13.48C265.34 13.48 265.92 13.2867 266.36 12.9C266.814 12.5 267.04 11.8533 267.04 10.96V10.52L264.5 10.9C263.634 11.0467 263.2 11.4867 263.2 12.22C263.2 12.5667 263.327 12.8667 263.58 13.12C263.834 13.36 264.18 13.48 264.62 13.48ZM274.425 15H272.125V5.26H274.425V15ZM272.205 2.9C271.912 2.60667 271.765 2.25333 271.765 1.84C271.765 1.42667 271.912 1.07333 272.205 0.779999C272.498 0.473333 272.852 0.319999 273.265 0.319999C273.692 0.319999 274.052 0.466666 274.345 0.76C274.638 1.05333 274.785 1.41333 274.785 1.84C274.785 2.25333 274.638 2.60667 274.345 2.9C274.052 3.19333 273.692 3.34 273.265 3.34C272.852 3.34 272.498 3.19333 272.205 2.9ZM279.738 15H277.418V0.519999H279.738V15ZM282.091 12.36C282.091 11.5333 282.358 10.8733 282.891 10.38C283.438 9.87333 284.151 9.55333 285.031 9.42L287.531 9.04C288.011 8.97333 288.251 8.74 288.251 8.34C288.251 7.9 288.098 7.54667 287.791 7.28C287.485 7 287.025 6.86 286.411 6.86C285.825 6.86 285.358 7.02667 285.011 7.36C284.665 7.68 284.465 8.1 284.411 8.62L282.291 8.14C282.385 7.26 282.805 6.51333 283.551 5.9C284.298 5.27333 285.245 4.96 286.391 4.96C287.805 4.96 288.845 5.3 289.511 5.98C290.191 6.66 290.531 7.53333 290.531 8.6V13.44C290.531 14.08 290.571 14.6 290.651 15H288.491C288.425 14.8 288.391 14.3867 288.391 13.76C287.751 14.7867 286.751 15.3 285.391 15.3C284.405 15.3 283.605 15.0133 282.991 14.44C282.391 13.8533 282.091 13.16 282.091 12.36ZM285.831 13.48C286.551 13.48 287.131 13.2867 287.571 12.9C288.025 12.5 288.251 11.8533 288.251 10.96V10.52L285.711 10.9C284.845 11.0467 284.411 11.4867 284.411 12.22C284.411 12.5667 284.538 12.8667 284.791 13.12C285.045 13.36 285.391 13.48 285.831 13.48ZM295.596 15H293.336V0.519999H295.616V6.46C295.856 6.04667 296.249 5.7 296.796 5.42C297.343 5.14 297.969 5 298.676 5C300.089 5 301.189 5.48 301.976 6.44C302.776 7.38667 303.176 8.6 303.176 10.08C303.176 11.5867 302.756 12.8267 301.916 13.8C301.089 14.76 299.983 15.24 298.596 15.24C297.209 15.24 296.209 14.7267 295.596 13.7V15ZM300.096 12.36C300.589 11.8 300.836 11.0467 300.836 10.1C300.836 9.15333 300.596 8.41333 300.116 7.88C299.636 7.33333 299.003 7.06 298.216 7.06C297.456 7.06 296.829 7.33333 296.336 7.88C295.843 8.41333 295.596 9.15333 295.596 10.1C295.596 11.0333 295.843 11.78 296.336 12.34C296.829 12.9 297.456 13.18 298.216 13.18C298.989 13.18 299.616 12.9067 300.096 12.36ZM307.726 15H305.406V0.519999H307.726V15ZM312.339 9.06H317.119C317.092 8.44667 316.872 7.93333 316.459 7.52C316.059 7.10667 315.479 6.9 314.719 6.9C314.025 6.9 313.465 7.12 313.039 7.56C312.612 7.98667 312.379 8.48667 312.339 9.06ZM317.379 11.6L319.339 12.22C319.059 13.1133 318.532 13.8533 317.759 14.44C316.999 15.0133 316.059 15.3 314.939 15.3C313.552 15.3 312.372 14.8267 311.399 13.88C310.439 12.9333 309.959 11.6667 309.959 10.08C309.959 8.58667 310.425 7.36 311.359 6.4C312.305 5.44 313.419 4.96 314.699 4.96C316.192 4.96 317.359 5.42 318.199 6.34C319.039 7.24667 319.459 8.47333 319.459 10.02C319.459 10.4333 319.439 10.68 319.399 10.76H312.279C312.305 11.4933 312.572 12.1 313.079 12.58C313.599 13.06 314.219 13.3 314.939 13.3C316.192 13.3 317.005 12.7333 317.379 11.6ZM321.722 14.66C321.415 14.34 321.262 13.9533 321.262 13.5C321.262 13.0467 321.415 12.66 321.722 12.34C322.042 12.02 322.429 11.86 322.882 11.86C323.335 11.86 323.722 12.02 324.042 12.34C324.362 12.66 324.522 13.0467 324.522 13.5C324.522 13.9533 324.362 14.34 324.042 14.66C323.722 14.9667 323.335 15.12 322.882 15.12C322.429 15.12 322.042 14.9667 321.722 14.66ZM345.621 11.26L348.401 0.819999H350.881L346.901 15H344.421L340.981 4.28L337.541 15H335.081L331.061 0.819999H333.581L336.421 11.18L339.741 0.819999H342.241L345.621 11.26ZM354.953 9.28V15H352.633V0.519999H354.953V6.2C355.579 5.38667 356.506 4.98 357.733 4.98C358.879 4.98 359.759 5.34 360.373 6.06C360.986 6.78 361.293 7.70667 361.293 8.84V15H358.973V9.24C358.973 8.58667 358.813 8.06667 358.493 7.68C358.173 7.28 357.666 7.08 356.973 7.08C356.359 7.08 355.873 7.28667 355.513 7.7C355.166 8.11333 354.979 8.64 354.953 9.28ZM365.737 9.06H370.517C370.491 8.44667 370.271 7.93333 369.857 7.52C369.457 7.10667 368.877 6.9 368.117 6.9C367.424 6.9 366.864 7.12 366.437 7.56C366.011 7.98667 365.777 8.48667 365.737 9.06ZM370.777 11.6L372.737 12.22C372.457 13.1133 371.931 13.8533 371.157 14.44C370.397 15.0133 369.457 15.3 368.337 15.3C366.951 15.3 365.771 14.8267 364.797 13.88C363.837 12.9333 363.357 11.6667 363.357 10.08C363.357 8.58667 363.824 7.36 364.757 6.4C365.704 5.44 366.817 4.96 368.097 4.96C369.591 4.96 370.757 5.42 371.597 6.34C372.437 7.24667 372.857 8.47333 372.857 10.02C372.857 10.4333 372.837 10.68 372.797 10.76H365.677C365.704 11.4933 365.971 12.1 366.477 12.58C366.997 13.06 367.617 13.3 368.337 13.3C369.591 13.3 370.404 12.7333 370.777 11.6ZM377.394 9.38V15H375.074V5.26H377.334V6.56C377.641 6.02667 378.048 5.63333 378.554 5.38C379.074 5.11333 379.628 4.98 380.214 4.98C381.361 4.98 382.234 5.34 382.834 6.06C383.434 6.78 383.734 7.70667 383.734 8.84V15H381.414V9.24C381.414 8.58667 381.254 8.06667 380.934 7.68C380.614 7.28 380.108 7.08 379.414 7.08C378.774 7.08 378.274 7.3 377.914 7.74C377.568 8.16667 377.394 8.71333 377.394 9.38ZM394.48 18.94H392L394.34 13.84L390.18 5.26H392.8L395.6 11.42L398.22 5.26H400.68L394.48 18.94ZM404.27 12.4C404.803 12.9467 405.45 13.22 406.21 13.22C406.97 13.22 407.61 12.9467 408.13 12.4C408.663 11.8533 408.93 11.0933 408.93 10.12C408.93 9.16 408.663 8.41333 408.13 7.88C407.61 7.33333 406.97 7.06 406.21 7.06C405.45 7.06 404.803 7.33333 404.27 7.88C403.75 8.41333 403.49 9.16 403.49 10.12C403.49 11.08 403.75 11.84 404.27 12.4ZM406.21 4.96C407.676 4.96 408.883 5.44667 409.83 6.42C410.79 7.39333 411.27 8.62667 411.27 10.12C411.27 11.6133 410.79 12.8533 409.83 13.84C408.883 14.8133 407.676 15.3 406.21 15.3C404.756 15.3 403.55 14.8133 402.59 13.84C401.643 12.8533 401.17 11.6133 401.17 10.12C401.17 8.62667 401.643 7.39333 402.59 6.42C403.55 5.44667 404.756 4.96 406.21 4.96ZM419.793 13.92C419.566 14.3467 419.193 14.68 418.673 14.92C418.166 15.16 417.62 15.28 417.033 15.28C415.9 15.28 415 14.9133 414.333 14.18C413.68 13.4467 413.353 12.52 413.353 11.4V5.26H415.673V10.98C415.673 11.6333 415.833 12.1667 416.153 12.58C416.473 12.9933 416.966 13.2 417.633 13.2C418.286 13.2 418.786 13 419.133 12.6C419.493 12.2 419.673 11.6733 419.673 11.02V5.26H421.993V13.22C421.993 13.8067 422.026 14.4 422.093 15H419.873C419.82 14.7067 419.793 14.3467 419.793 13.92ZM0.8 47.54L2.94 46.98C3.02 47.5933 3.28 48.0933 3.72 48.48C4.17333 48.88 4.72667 49.08 5.38 49.08C7.22 49.08 8.14 48.1067 8.14 46.16V45.14C7.91333 45.5533 7.55333 45.8933 7.06 46.16C6.56667 46.4267 5.98667 46.56 5.32 46.56C4.01333 46.56 2.93333 46.1133 2.08 45.22C1.24 44.3267 0.82 43.1933 0.82 41.82C0.82 40.5 1.24 39.38 2.08 38.46C2.92 37.54 4 37.08 5.32 37.08C6.74667 37.08 7.70667 37.5533 8.2 38.5V37.26H10.44V46.08C10.44 47.52 10.0333 48.7133 9.22 49.66C8.40667 50.62 7.14667 51.1 5.44 51.1C4.18667 51.1 3.13333 50.76 2.28 50.08C1.42667 49.4 0.933333 48.5533 0.8 47.54ZM5.7 44.58C6.44667 44.58 7.04667 44.3333 7.5 43.84C7.96667 43.3333 8.2 42.66 8.2 41.82C8.2 40.9933 7.96667 40.3333 7.5 39.84C7.03333 39.3333 6.43333 39.08 5.7 39.08C4.95333 39.08 4.34 39.3333 3.86 39.84C3.39333 40.3333 3.16 40.9933 3.16 41.82C3.16 42.66 3.39333 43.3333 3.86 43.84C4.32667 44.3333 4.94 44.58 5.7 44.58ZM14.8973 41.06H19.6773C19.6507 40.4467 19.4307 39.9333 19.0173 39.52C18.6173 39.1067 18.0373 38.9 17.2773 38.9C16.584 38.9 16.024 39.12 15.5973 39.56C15.1707 39.9867 14.9373 40.4867 14.8973 41.06ZM19.9373 43.6L21.8973 44.22C21.6173 45.1133 21.0907 45.8533 20.3173 46.44C19.5573 47.0133 18.6173 47.3 17.4973 47.3C16.1107 47.3 14.9307 46.8267 13.9573 45.88C12.9973 44.9333 12.5173 43.6667 12.5173 42.08C12.5173 40.5867 12.984 39.36 13.9173 38.4C14.864 37.44 15.9773 36.96 17.2573 36.96C18.7507 36.96 19.9173 37.42 20.7573 38.34C21.5973 39.2467 22.0173 40.4733 22.0173 42.02C22.0173 42.4333 21.9973 42.68 21.9573 42.76H14.8373C14.864 43.4933 15.1307 44.1 15.6373 44.58C16.1573 45.06 16.7773 45.3 17.4973 45.3C18.7507 45.3 19.564 44.7333 19.9373 43.6ZM27.1744 34.28V37.26H29.1944V39.32H27.1744V43.84C27.1744 44.2667 27.2744 44.58 27.4744 44.78C27.6744 44.9667 27.9877 45.06 28.4144 45.06C28.681 45.06 28.9477 45.0333 29.2144 44.98V46.9C28.8677 47.0467 28.3944 47.12 27.7944 47.12C26.8877 47.12 26.1744 46.8667 25.6544 46.36C25.1344 45.84 24.8744 45.1267 24.8744 44.22V39.32H23.0744V37.26H23.5744C24.0677 37.26 24.441 37.12 24.6944 36.84C24.9477 36.56 25.0744 36.1933 25.0744 35.74V34.28H27.1744ZM38.82 41.28V47H36.5V32.52H38.82V38.2C39.4467 37.3867 40.3733 36.98 41.6 36.98C42.7467 36.98 43.6267 37.34 44.24 38.06C44.8533 38.78 45.16 39.7067 45.16 40.84V47H42.84V41.24C42.84 40.5867 42.68 40.0667 42.36 39.68C42.04 39.28 41.5333 39.08 40.84 39.08C40.2267 39.08 39.74 39.2867 39.38 39.7C39.0333 40.1133 38.8467 40.64 38.82 41.28ZM54.1877 45.92C53.961 46.3467 53.5877 46.68 53.0677 46.92C52.561 47.16 52.0143 47.28 51.4277 47.28C50.2943 47.28 49.3943 46.9133 48.7277 46.18C48.0743 45.4467 47.7477 44.52 47.7477 43.4V37.26H50.0677V42.98C50.0677 43.6333 50.2277 44.1667 50.5477 44.58C50.8677 44.9933 51.361 45.2 52.0277 45.2C52.681 45.2 53.181 45 53.5277 44.6C53.8877 44.2 54.0677 43.6733 54.0677 43.02V37.26H56.3877V45.22C56.3877 45.8067 56.421 46.4 56.4877 47H54.2677C54.2143 46.7067 54.1877 46.3467 54.1877 45.92ZM61.7106 41.38V47H59.3906V37.26H61.6506V38.56C61.9573 38.0267 62.364 37.6333 62.8706 37.38C63.3906 37.1133 63.944 36.98 64.5306 36.98C65.6773 36.98 66.5506 37.34 67.1506 38.06C67.7506 38.78 68.0506 39.7067 68.0506 40.84V47H65.7306V41.24C65.7306 40.5867 65.5706 40.0667 65.2506 39.68C64.9306 39.28 64.424 39.08 63.7306 39.08C63.0906 39.08 62.5906 39.3 62.2306 39.74C61.884 40.1667 61.7106 40.7133 61.7106 41.38ZM70.175 47.54L72.315 46.98C72.395 47.5933 72.655 48.0933 73.095 48.48C73.5483 48.88 74.1017 49.08 74.755 49.08C76.595 49.08 77.515 48.1067 77.515 46.16V45.14C77.2883 45.5533 76.9283 45.8933 76.435 46.16C75.9417 46.4267 75.3617 46.56 74.695 46.56C73.3883 46.56 72.3083 46.1133 71.455 45.22C70.615 44.3267 70.195 43.1933 70.195 41.82C70.195 40.5 70.615 39.38 71.455 38.46C72.295 37.54 73.375 37.08 74.695 37.08C76.1217 37.08 77.0817 37.5533 77.575 38.5V37.26H79.815V46.08C79.815 47.52 79.4083 48.7133 78.595 49.66C77.7817 50.62 76.5217 51.1 74.815 51.1C73.5617 51.1 72.5083 50.76 71.655 50.08C70.8017 49.4 70.3083 48.5533 70.175 47.54ZM75.075 44.58C75.8217 44.58 76.4217 44.3333 76.875 43.84C77.3417 43.3333 77.575 42.66 77.575 41.82C77.575 40.9933 77.3417 40.3333 76.875 39.84C76.4083 39.3333 75.8083 39.08 75.075 39.08C74.3283 39.08 73.715 39.3333 73.235 39.84C72.7683 40.3333 72.535 40.9933 72.535 41.82C72.535 42.66 72.7683 43.3333 73.235 43.84C73.7017 44.3333 74.315 44.58 75.075 44.58ZM88.3523 37.2V39.56C88.0857 39.52 87.8323 39.5 87.5923 39.5C85.8457 39.5 84.9723 40.4533 84.9723 42.36V47H82.6523V37.26H84.9123V38.82C85.139 38.3 85.5057 37.8933 86.0123 37.6C86.519 37.2933 87.0923 37.14 87.7323 37.14C87.9457 37.14 88.1523 37.16 88.3523 37.2ZM93.6006 50.94H91.1206L93.4606 45.84L89.3006 37.26H91.9206L94.7206 43.42L97.3406 37.26H99.8006L93.6006 50.94ZM99.2492 45.54C99.2492 45.1133 99.4092 44.7533 99.7292 44.46C100.049 44.1667 100.443 44.02 100.909 44.02C101.443 44.02 101.876 44.2133 102.209 44.6C102.556 44.9867 102.729 45.5 102.729 46.14C102.729 47.4067 102.389 48.3867 101.709 49.08C101.043 49.7867 100.296 50.1933 99.4692 50.3V49.12C99.9359 49.0133 100.343 48.7533 100.689 48.34C101.049 47.9267 101.236 47.4667 101.249 46.96C101.116 47.0267 100.956 47.06 100.769 47.06C100.329 47.06 99.9626 46.92 99.6692 46.64C99.3892 46.36 99.2492 45.9933 99.2492 45.54ZM113.444 50.94H110.964L113.304 45.84L109.144 37.26H111.764L114.564 43.42L117.184 37.26H119.644L113.444 50.94ZM123.235 44.4C123.768 44.9467 124.415 45.22 125.175 45.22C125.935 45.22 126.575 44.9467 127.095 44.4C127.628 43.8533 127.895 43.0933 127.895 42.12C127.895 41.16 127.628 40.4133 127.095 39.88C126.575 39.3333 125.935 39.06 125.175 39.06C124.415 39.06 123.768 39.3333 123.235 39.88C122.715 40.4133 122.455 41.16 122.455 42.12C122.455 43.08 122.715 43.84 123.235 44.4ZM125.175 36.96C126.641 36.96 127.848 37.4467 128.795 38.42C129.755 39.3933 130.235 40.6267 130.235 42.12C130.235 43.6133 129.755 44.8533 128.795 45.84C127.848 46.8133 126.641 47.3 125.175 47.3C123.721 47.3 122.515 46.8133 121.555 45.84C120.608 44.8533 120.135 43.6133 120.135 42.12C120.135 40.6267 120.608 39.3933 121.555 38.42C122.515 37.4467 123.721 36.96 125.175 36.96ZM138.758 45.92C138.531 46.3467 138.158 46.68 137.638 46.92C137.131 47.16 136.585 47.28 135.998 47.28C134.865 47.28 133.965 46.9133 133.298 46.18C132.645 45.4467 132.318 44.52 132.318 43.4V37.26H134.638V42.98C134.638 43.6333 134.798 44.1667 135.118 44.58C135.438 44.9933 135.931 45.2 136.598 45.2C137.251 45.2 137.751 45 138.098 44.6C138.458 44.2 138.638 43.6733 138.638 43.02V37.26H140.958V45.22C140.958 45.8067 140.991 46.4 141.058 47H138.838C138.785 46.7067 138.758 46.3467 138.758 45.92ZM143.142 34.02C143.142 33.6467 143.282 33.3267 143.562 33.06C143.842 32.7933 144.196 32.66 144.622 32.66C145.102 32.66 145.496 32.8333 145.802 33.18C146.122 33.5267 146.282 33.9733 146.282 34.52C146.282 35.6933 145.976 36.5867 145.362 37.2C144.749 37.8133 144.069 38.16 143.322 38.24V37.14C143.736 37.06 144.102 36.8467 144.422 36.5C144.742 36.14 144.909 35.74 144.922 35.3C144.789 35.3667 144.649 35.4 144.502 35.4C144.102 35.4 143.776 35.2733 143.522 35.02C143.269 34.7667 143.142 34.4333 143.142 34.02ZM153.548 37.2V39.56C153.281 39.52 153.028 39.5 152.788 39.5C151.041 39.5 150.168 40.4533 150.168 42.36V47H147.848V37.26H150.108V38.82C150.334 38.3 150.701 37.8933 151.208 37.6C151.714 37.2933 152.288 37.14 152.928 37.14C153.141 37.14 153.348 37.16 153.548 37.2ZM157.007 41.06H161.787C161.76 40.4467 161.54 39.9333 161.127 39.52C160.727 39.1067 160.147 38.9 159.387 38.9C158.693 38.9 158.133 39.12 157.707 39.56C157.28 39.9867 157.047 40.4867 157.007 41.06ZM162.047 43.6L164.007 44.22C163.727 45.1133 163.2 45.8533 162.427 46.44C161.667 47.0133 160.727 47.3 159.607 47.3C158.22 47.3 157.04 46.8267 156.067 45.88C155.107 44.9333 154.627 43.6667 154.627 42.08C154.627 40.5867 155.093 39.36 156.027 38.4C156.973 37.44 158.087 36.96 159.367 36.96C160.86 36.96 162.027 37.42 162.867 38.34C163.707 39.2467 164.127 40.4733 164.127 42.02C164.127 42.4333 164.107 42.68 164.067 42.76H156.947C156.973 43.4933 157.24 44.1 157.747 44.58C158.267 45.06 158.887 45.3 159.607 45.3C160.86 45.3 161.673 44.7333 162.047 43.6ZM173.605 47H171.305V37.26H173.525V38.5C173.791 38.02 174.191 37.6467 174.725 37.38C175.271 37.1133 175.831 36.98 176.405 36.98C177.058 36.98 177.645 37.1267 178.165 37.42C178.685 37.7133 179.071 38.14 179.325 38.7C180.005 37.5533 181.058 36.98 182.485 36.98C183.445 36.98 184.258 37.2933 184.925 37.92C185.591 38.5467 185.925 39.4667 185.925 40.68V47H183.685V41.06C183.685 40.46 183.525 39.98 183.205 39.62C182.898 39.2467 182.431 39.06 181.805 39.06C181.205 39.06 180.718 39.2667 180.345 39.68C179.971 40.0933 179.785 40.6067 179.785 41.22V47H177.505V41.06C177.505 40.46 177.345 39.98 177.025 39.62C176.718 39.2467 176.251 39.06 175.625 39.06C175.011 39.06 174.518 39.2667 174.145 39.68C173.785 40.08 173.605 40.5933 173.605 41.22V47ZM191.106 44.4C191.639 44.9467 192.286 45.22 193.046 45.22C193.806 45.22 194.446 44.9467 194.966 44.4C195.499 43.8533 195.766 43.0933 195.766 42.12C195.766 41.16 195.499 40.4133 194.966 39.88C194.446 39.3333 193.806 39.06 193.046 39.06C192.286 39.06 191.639 39.3333 191.106 39.88C190.586 40.4133 190.326 41.16 190.326 42.12C190.326 43.08 190.586 43.84 191.106 44.4ZM193.046 36.96C194.512 36.96 195.719 37.4467 196.666 38.42C197.626 39.3933 198.106 40.6267 198.106 42.12C198.106 43.6133 197.626 44.8533 196.666 45.84C195.719 46.8133 194.512 47.3 193.046 47.3C191.592 47.3 190.386 46.8133 189.426 45.84C188.479 44.8533 188.006 43.6133 188.006 42.12C188.006 40.6267 188.479 39.3933 189.426 38.42C190.386 37.4467 191.592 36.96 193.046 36.96ZM206.048 37.2V39.56C205.781 39.52 205.528 39.5 205.288 39.5C203.541 39.5 202.668 40.4533 202.668 42.36V47H200.348V37.26H202.608V38.82C202.834 38.3 203.201 37.8933 203.708 37.6C204.214 37.2933 204.788 37.14 205.428 37.14C205.641 37.14 205.848 37.16 206.048 37.2ZM209.507 41.06H214.287C214.26 40.4467 214.04 39.9333 213.627 39.52C213.227 39.1067 212.647 38.9 211.887 38.9C211.193 38.9 210.633 39.12 210.207 39.56C209.78 39.9867 209.547 40.4867 209.507 41.06ZM214.547 43.6L216.507 44.22C216.227 45.1133 215.7 45.8533 214.927 46.44C214.167 47.0133 213.227 47.3 212.107 47.3C210.72 47.3 209.54 46.8267 208.567 45.88C207.607 44.9333 207.127 43.6667 207.127 42.08C207.127 40.5867 207.593 39.36 208.527 38.4C209.473 37.44 210.587 36.96 211.867 36.96C213.36 36.96 214.527 37.42 215.367 38.34C216.207 39.2467 216.627 40.4733 216.627 42.02C216.627 42.4333 216.607 42.68 216.567 42.76H209.447C209.473 43.4933 209.74 44.1 210.247 44.58C210.767 45.06 211.387 45.3 212.107 45.3C213.36 45.3 214.173 44.7333 214.547 43.6ZM226.125 47H223.805V32.52H226.125V47ZM231.417 47H229.117V37.26H231.417V47ZM229.197 34.9C228.904 34.6067 228.757 34.2533 228.757 33.84C228.757 33.4267 228.904 33.0733 229.197 32.78C229.491 32.4733 229.844 32.32 230.257 32.32C230.684 32.32 231.044 32.4667 231.337 32.76C231.631 33.0533 231.777 33.4133 231.777 33.84C231.777 34.2533 231.631 34.6067 231.337 34.9C231.044 35.1933 230.684 35.34 230.257 35.34C229.844 35.34 229.491 35.1933 229.197 34.9ZM243.53 37.26L239.53 41.38L243.61 47H240.77L237.91 43.02L236.71 44.28V47H234.41V32.52H236.71V41.2L240.45 37.26H243.53ZM246.44 41.06H251.22C251.194 40.4467 250.974 39.9333 250.56 39.52C250.16 39.1067 249.58 38.9 248.82 38.9C248.127 38.9 247.567 39.12 247.14 39.56C246.714 39.9867 246.48 40.4867 246.44 41.06ZM251.48 43.6L253.44 44.22C253.16 45.1133 252.634 45.8533 251.86 46.44C251.1 47.0133 250.16 47.3 249.04 47.3C247.654 47.3 246.474 46.8267 245.5 45.88C244.54 44.9333 244.06 43.6667 244.06 42.08C244.06 40.5867 244.527 39.36 245.46 38.4C246.407 37.44 247.52 36.96 248.8 36.96C250.294 36.96 251.46 37.42 252.3 38.34C253.14 39.2467 253.56 40.4733 253.56 42.02C253.56 42.4333 253.54 42.68 253.5 42.76H246.38C246.407 43.4933 246.674 44.1 247.18 44.58C247.7 45.06 248.32 45.3 249.04 45.3C250.294 45.3 251.107 44.7333 251.48 43.6ZM258.097 47H255.777V32.52H258.097V47ZM264.05 50.94H261.57L263.91 45.84L259.75 37.26H262.37L265.17 43.42L267.79 37.26H270.25L264.05 50.94ZM279.85 34.28V37.26H281.87V39.32H279.85V43.84C279.85 44.2667 279.95 44.58 280.15 44.78C280.35 44.9667 280.663 45.06 281.09 45.06C281.357 45.06 281.623 45.0333 281.89 44.98V46.9C281.543 47.0467 281.07 47.12 280.47 47.12C279.563 47.12 278.85 46.8667 278.33 46.36C277.81 45.84 277.55 45.1267 277.55 44.22V39.32H275.75V37.26H276.25C276.743 37.26 277.117 37.12 277.37 36.84C277.623 36.56 277.75 36.1933 277.75 35.74V34.28H279.85ZM286.496 44.4C287.03 44.9467 287.676 45.22 288.436 45.22C289.196 45.22 289.836 44.9467 290.356 44.4C290.89 43.8533 291.156 43.0933 291.156 42.12C291.156 41.16 290.89 40.4133 290.356 39.88C289.836 39.3333 289.196 39.06 288.436 39.06C287.676 39.06 287.03 39.3333 286.496 39.88C285.976 40.4133 285.716 41.16 285.716 42.12C285.716 43.08 285.976 43.84 286.496 44.4ZM288.436 36.96C289.903 36.96 291.11 37.4467 292.056 38.42C293.016 39.3933 293.496 40.6267 293.496 42.12C293.496 43.6133 293.016 44.8533 292.056 45.84C291.11 46.8133 289.903 47.3 288.436 47.3C286.983 47.3 285.776 46.8133 284.816 45.84C283.87 44.8533 283.396 43.6133 283.396 42.12C283.396 40.6267 283.87 39.3933 284.816 38.42C285.776 37.4467 286.983 36.96 288.436 36.96ZM302.319 41.06H307.099C307.073 40.4467 306.853 39.9333 306.439 39.52C306.039 39.1067 305.459 38.9 304.699 38.9C304.006 38.9 303.446 39.12 303.019 39.56C302.593 39.9867 302.359 40.4867 302.319 41.06ZM307.359 43.6L309.319 44.22C309.039 45.1133 308.513 45.8533 307.739 46.44C306.979 47.0133 306.039 47.3 304.919 47.3C303.533 47.3 302.353 46.8267 301.379 45.88C300.419 44.9333 299.939 43.6667 299.939 42.08C299.939 40.5867 300.406 39.36 301.339 38.4C302.286 37.44 303.399 36.96 304.679 36.96C306.173 36.96 307.339 37.42 308.179 38.34C309.019 39.2467 309.439 40.4733 309.439 42.02C309.439 42.4333 309.419 42.68 309.379 42.76H302.259C302.286 43.4933 302.553 44.1 303.059 44.58C303.579 45.06 304.199 45.3 304.919 45.3C306.173 45.3 306.986 44.7333 307.359 43.6ZM311.056 44.36C311.056 43.5333 311.323 42.8733 311.856 42.38C312.403 41.8733 313.116 41.5533 313.996 41.42L316.496 41.04C316.976 40.9733 317.216 40.74 317.216 40.34C317.216 39.9 317.063 39.5467 316.756 39.28C316.45 39 315.99 38.86 315.376 38.86C314.79 38.86 314.323 39.0267 313.976 39.36C313.63 39.68 313.43 40.1 313.376 40.62L311.256 40.14C311.35 39.26 311.77 38.5133 312.516 37.9C313.263 37.2733 314.21 36.96 315.356 36.96C316.77 36.96 317.81 37.3 318.476 37.98C319.156 38.66 319.496 39.5333 319.496 40.6V45.44C319.496 46.08 319.536 46.6 319.616 47H317.456C317.39 46.8 317.356 46.3867 317.356 45.76C316.716 46.7867 315.716 47.3 314.356 47.3C313.37 47.3 312.57 47.0133 311.956 46.44C311.356 45.8533 311.056 45.16 311.056 44.36ZM314.796 45.48C315.516 45.48 316.096 45.2867 316.536 44.9C316.99 44.5 317.216 43.8533 317.216 42.96V42.52L314.676 42.9C313.81 43.0467 313.376 43.4867 313.376 44.22C313.376 44.5667 313.503 44.8667 313.756 45.12C314.01 45.36 314.356 45.48 314.796 45.48ZM325.202 34.28V37.26H327.222V39.32H325.202V43.84C325.202 44.2667 325.302 44.58 325.502 44.78C325.702 44.9667 326.015 45.06 326.442 45.06C326.708 45.06 326.975 45.0333 327.242 44.98V46.9C326.895 47.0467 326.422 47.12 325.822 47.12C324.915 47.12 324.202 46.8667 323.682 46.36C323.162 45.84 322.902 45.1267 322.902 44.22V39.32H321.102V37.26H321.602C322.095 37.26 322.468 37.12 322.722 36.84C322.975 36.56 323.102 36.1933 323.102 35.74V34.28H325.202ZM337.467 34.28V37.26H339.487V39.32H337.467V43.84C337.467 44.2667 337.567 44.58 337.767 44.78C337.967 44.9667 338.281 45.06 338.707 45.06C338.974 45.06 339.241 45.0333 339.507 44.98V46.9C339.161 47.0467 338.687 47.12 338.087 47.12C337.181 47.12 336.467 46.8667 335.947 46.36C335.427 45.84 335.167 45.1267 335.167 44.22V39.32H333.367V37.26H333.867C334.361 37.26 334.734 37.12 334.987 36.84C335.241 36.56 335.367 36.1933 335.367 35.74V34.28H337.467ZM343.918 41.28V47H341.598V32.52H343.918V38.2C344.544 37.3867 345.471 36.98 346.698 36.98C347.844 36.98 348.724 37.34 349.338 38.06C349.951 38.78 350.258 39.7067 350.258 40.84V47H347.938V41.24C347.938 40.5867 347.778 40.0667 347.458 39.68C347.138 39.28 346.631 39.08 345.938 39.08C345.324 39.08 344.838 39.2867 344.478 39.7C344.131 40.1133 343.944 40.64 343.918 41.28ZM354.702 41.06H359.482C359.455 40.4467 359.235 39.9333 358.822 39.52C358.422 39.1067 357.842 38.9 357.082 38.9C356.389 38.9 355.829 39.12 355.402 39.56C354.975 39.9867 354.742 40.4867 354.702 41.06ZM359.742 43.6L361.702 44.22C361.422 45.1133 360.895 45.8533 360.122 46.44C359.362 47.0133 358.422 47.3 357.302 47.3C355.915 47.3 354.735 46.8267 353.762 45.88C352.802 44.9333 352.322 43.6667 352.322 42.08C352.322 40.5867 352.789 39.36 353.722 38.4C354.669 37.44 355.782 36.96 357.062 36.96C358.555 36.96 359.722 37.42 360.562 38.34C361.402 39.2467 361.822 40.4733 361.822 42.02C361.822 42.4333 361.802 42.68 361.762 42.76H354.642C354.669 43.4933 354.935 44.1 355.442 44.58C355.962 45.06 356.582 45.3 357.302 45.3C358.555 45.3 359.369 44.7333 359.742 43.6ZM372.94 32.42C373.487 32.42 373.893 32.4867 374.16 32.62V34.6C373.92 34.5333 373.64 34.5 373.32 34.5C372.947 34.5 372.613 34.6133 372.32 34.84C372.027 35.0667 371.88 35.4467 371.88 35.98V37.26H378.36V47H376.08V39.28H371.88V47H369.54V39.28H367.84V37.26H369.54V35.92C369.54 34.84 369.853 33.9867 370.48 33.36C371.107 32.7333 371.927 32.42 372.94 32.42ZM375.72 33.82C375.72 33.3933 375.867 33.0333 376.16 32.74C376.453 32.4467 376.807 32.3 377.22 32.3C377.647 32.3 378.007 32.4533 378.3 32.76C378.593 33.0533 378.74 33.4067 378.74 33.82C378.74 34.2333 378.587 34.5867 378.28 34.88C377.987 35.1733 377.633 35.32 377.22 35.32C376.807 35.32 376.453 35.1733 376.16 34.88C375.867 34.5867 375.72 34.2333 375.72 33.82ZM387.083 37.2V39.56C386.816 39.52 386.563 39.5 386.323 39.5C384.576 39.5 383.703 40.4533 383.703 42.36V47H381.383V37.26H383.643V38.82C383.869 38.3 384.236 37.8933 384.743 37.6C385.249 37.2933 385.823 37.14 386.463 37.14C386.676 37.14 386.883 37.16 387.083 37.2ZM388.179 44.36L390.199 43.8C390.239 44.2667 390.432 44.66 390.779 44.98C391.126 45.3 391.592 45.46 392.179 45.46C392.632 45.46 392.986 45.3533 393.239 45.14C393.506 44.9267 393.639 44.66 393.639 44.34C393.639 43.78 393.259 43.42 392.499 43.26L391.059 42.94C390.219 42.7533 389.572 42.4067 389.119 41.9C388.666 41.3933 388.439 40.7933 388.439 40.1C388.439 39.2467 388.786 38.5133 389.479 37.9C390.172 37.2733 391.019 36.96 392.019 36.96C392.659 36.96 393.226 37.0533 393.719 37.24C394.212 37.4267 394.592 37.6733 394.859 37.98C395.139 38.2733 395.352 38.56 395.499 38.84C395.646 39.12 395.739 39.4 395.779 39.68L393.819 40.24C393.766 39.8667 393.592 39.5333 393.299 39.24C393.019 38.9333 392.592 38.78 392.019 38.78C391.619 38.78 391.286 38.8933 391.019 39.12C390.752 39.3333 390.619 39.5933 390.619 39.9C390.619 40.4467 390.946 40.7867 391.599 40.92L393.079 41.22C393.986 41.42 394.679 41.78 395.159 42.3C395.639 42.82 395.879 43.4467 395.879 44.18C395.879 44.9933 395.552 45.72 394.899 46.36C394.259 46.9867 393.359 47.3 392.199 47.3C391.532 47.3 390.932 47.2 390.399 47C389.879 46.8 389.466 46.5467 389.159 46.24C388.866 45.92 388.632 45.6067 388.459 45.3C388.299 44.98 388.206 44.6667 388.179 44.36ZM401.12 34.28V37.26H403.14V39.32H401.12V43.84C401.12 44.2667 401.22 44.58 401.42 44.78C401.62 44.9667 401.933 45.06 402.36 45.06C402.626 45.06 402.893 45.0333 403.16 44.98V46.9C402.813 47.0467 402.34 47.12 401.74 47.12C400.833 47.12 400.12 46.8667 399.6 46.36C399.08 45.84 398.82 45.1267 398.82 44.22V39.32H397.02V37.26H397.52C398.013 37.26 398.386 37.12 398.64 36.84C398.893 36.56 399.02 36.1933 399.02 35.74V34.28H401.12ZM4.44 66.28V69.26H6.46V71.32H4.44V75.84C4.44 76.2667 4.54 76.58 4.74 76.78C4.94 76.9667 5.25333 77.06 5.68 77.06C5.94667 77.06 6.21333 77.0333 6.48 76.98V78.9C6.13333 79.0467 5.66 79.12 5.06 79.12C4.15333 79.12 3.44 78.8667 2.92 78.36C2.4 77.84 2.14 77.1267 2.14 76.22V71.32H0.34V69.26H0.84C1.33333 69.26 1.70667 69.12 1.96 68.84C2.21333 68.56 2.34 68.1933 2.34 67.74V66.28H4.44ZM10.8903 73.28V79H8.57031V64.52H10.8903V70.2C11.517 69.3867 12.4436 68.98 13.6703 68.98C14.817 68.98 15.697 69.34 16.3103 70.06C16.9236 70.78 17.2303 71.7067 17.2303 72.84V79H14.9103V73.24C14.9103 72.5867 14.7503 72.0667 14.4303 71.68C14.1103 71.28 13.6036 71.08 12.9103 71.08C12.297 71.08 11.8103 71.2867 11.4503 71.7C11.1036 72.1133 10.917 72.64 10.8903 73.28ZM22.3547 79H20.0547V69.26H22.3547V79ZM20.1347 66.9C19.8414 66.6067 19.6947 66.2533 19.6947 65.84C19.6947 65.4267 19.8414 65.0733 20.1347 64.78C20.428 64.4733 20.7814 64.32 21.1947 64.32C21.6214 64.32 21.9814 64.4667 22.2747 64.76C22.568 65.0533 22.7147 65.4133 22.7147 65.84C22.7147 66.2533 22.568 66.6067 22.2747 66.9C21.9814 67.1933 21.6214 67.34 21.1947 67.34C20.7814 67.34 20.428 67.1933 20.1347 66.9ZM27.6677 73.38V79H25.3477V69.26H27.6077V70.56C27.9143 70.0267 28.321 69.6333 28.8277 69.38C29.3477 69.1133 29.901 68.98 30.4877 68.98C31.6343 68.98 32.5077 69.34 33.1077 70.06C33.7077 70.78 34.0077 71.7067 34.0077 72.84V79H31.6877V73.24C31.6877 72.5867 31.5277 72.0667 31.2077 71.68C30.8877 71.28 30.381 71.08 29.6877 71.08C29.0477 71.08 28.5477 71.3 28.1877 71.74C27.841 72.1667 27.6677 72.7133 27.6677 73.38ZM36.132 79.54L38.272 78.98C38.352 79.5933 38.612 80.0933 39.052 80.48C39.5054 80.88 40.0587 81.08 40.712 81.08C42.552 81.08 43.472 80.1067 43.472 78.16V77.14C43.2454 77.5533 42.8854 77.8933 42.392 78.16C41.8987 78.4267 41.3187 78.56 40.652 78.56C39.3454 78.56 38.2654 78.1133 37.412 77.22C36.572 76.3267 36.152 75.1933 36.152 73.82C36.152 72.5 36.572 71.38 37.412 70.46C38.252 69.54 39.332 69.08 40.652 69.08C42.0787 69.08 43.0387 69.5533 43.532 70.5V69.26H45.772V78.08C45.772 79.52 45.3654 80.7133 44.552 81.66C43.7387 82.62 42.4787 83.1 40.772 83.1C39.5187 83.1 38.4654 82.76 37.612 82.08C36.7587 81.4 36.2654 80.5533 36.132 79.54ZM41.032 76.58C41.7787 76.58 42.3787 76.3333 42.832 75.84C43.2987 75.3333 43.532 74.66 43.532 73.82C43.532 72.9933 43.2987 72.3333 42.832 71.84C42.3654 71.3333 41.7654 71.08 41.032 71.08C40.2854 71.08 39.672 71.3333 39.192 71.84C38.7254 72.3333 38.492 72.9933 38.492 73.82C38.492 74.66 38.7254 75.3333 39.192 75.84C39.6587 76.3333 40.272 76.58 41.032 76.58ZM56.5303 82.94H54.0503L56.3903 77.84L52.2303 69.26H54.8503L57.6503 75.42L60.2703 69.26H62.7303L56.5303 82.94ZM66.3205 76.4C66.8538 76.9467 67.5005 77.22 68.2605 77.22C69.0205 77.22 69.6605 76.9467 70.1805 76.4C70.7138 75.8533 70.9805 75.0933 70.9805 74.12C70.9805 73.16 70.7138 72.4133 70.1805 71.88C69.6605 71.3333 69.0205 71.06 68.2605 71.06C67.5005 71.06 66.8538 71.3333 66.3205 71.88C65.8005 72.4133 65.5405 73.16 65.5405 74.12C65.5405 75.08 65.8005 75.84 66.3205 76.4ZM68.2605 68.96C69.7271 68.96 70.9338 69.4467 71.8805 70.42C72.8405 71.3933 73.3205 72.6267 73.3205 74.12C73.3205 75.6133 72.8405 76.8533 71.8805 77.84C70.9338 78.8133 69.7271 79.3 68.2605 79.3C66.8071 79.3 65.6005 78.8133 64.6405 77.84C63.6938 76.8533 63.2205 75.6133 63.2205 74.12C63.2205 72.6267 63.6938 71.3933 64.6405 70.42C65.6005 69.4467 66.8071 68.96 68.2605 68.96ZM81.8439 77.92C81.6172 78.3467 81.2439 78.68 80.7239 78.92C80.2172 79.16 79.6706 79.28 79.0839 79.28C77.9506 79.28 77.0506 78.9133 76.3839 78.18C75.7306 77.4467 75.4039 76.52 75.4039 75.4V69.26H77.7239V74.98C77.7239 75.6333 77.8839 76.1667 78.2039 76.58C78.5239 76.9933 79.0172 77.2 79.6839 77.2C80.3372 77.2 80.8372 77 81.1839 76.6C81.5439 76.2 81.7239 75.6733 81.7239 75.02V69.26H84.0439V77.22C84.0439 77.8067 84.0772 78.4 84.1439 79H81.9239C81.8706 78.7067 81.8439 78.3467 81.8439 77.92ZM91.1478 76.36L93.1678 75.8C93.2078 76.2667 93.4011 76.66 93.7478 76.98C94.0945 77.3 94.5611 77.46 95.1478 77.46C95.6011 77.46 95.9545 77.3533 96.2078 77.14C96.4745 76.9267 96.6078 76.66 96.6078 76.34C96.6078 75.78 96.2278 75.42 95.4678 75.26L94.0278 74.94C93.1878 74.7533 92.5411 74.4067 92.0878 73.9C91.6345 73.3933 91.4078 72.7933 91.4078 72.1C91.4078 71.2467 91.7545 70.5133 92.4478 69.9C93.1411 69.2733 93.9878 68.96 94.9878 68.96C95.6278 68.96 96.1945 69.0533 96.6878 69.24C97.1811 69.4267 97.5611 69.6733 97.8278 69.98C98.1078 70.2733 98.3211 70.56 98.4678 70.84C98.6145 71.12 98.7078 71.4 98.7478 71.68L96.7878 72.24C96.7345 71.8667 96.5611 71.5333 96.2678 71.24C95.9878 70.9333 95.5611 70.78 94.9878 70.78C94.5878 70.78 94.2545 70.8933 93.9878 71.12C93.7211 71.3333 93.5878 71.5933 93.5878 71.9C93.5878 72.4467 93.9145 72.7867 94.5678 72.92L96.0478 73.22C96.9545 73.42 97.6478 73.78 98.1278 74.3C98.6078 74.82 98.8478 75.4467 98.8478 76.18C98.8478 76.9933 98.5211 77.72 97.8678 78.36C97.2278 78.9867 96.3278 79.3 95.1678 79.3C94.5011 79.3 93.9011 79.2 93.3678 79C92.8478 78.8 92.4345 78.5467 92.1278 78.24C91.8345 77.92 91.6011 77.6067 91.4278 77.3C91.2678 76.98 91.1745 76.6667 91.1478 76.36ZM102.71 73.06H107.49C107.463 72.4467 107.243 71.9333 106.83 71.52C106.43 71.1067 105.85 70.9 105.09 70.9C104.397 70.9 103.837 71.12 103.41 71.56C102.983 71.9867 102.75 72.4867 102.71 73.06ZM107.75 75.6L109.71 76.22C109.43 77.1133 108.903 77.8533 108.13 78.44C107.37 79.0133 106.43 79.3 105.31 79.3C103.923 79.3 102.743 78.8267 101.77 77.88C100.81 76.9333 100.33 75.6667 100.33 74.08C100.33 72.5867 100.797 71.36 101.73 70.4C102.677 69.44 103.79 68.96 105.07 68.96C106.563 68.96 107.73 69.42 108.57 70.34C109.41 71.2467 109.83 72.4733 109.83 74.02C109.83 74.4333 109.81 74.68 109.77 74.76H102.65C102.677 75.4933 102.943 76.1 103.45 76.58C103.97 77.06 104.59 77.3 105.31 77.3C106.563 77.3 107.377 76.7333 107.75 75.6ZM113.667 73.06H118.447C118.42 72.4467 118.2 71.9333 117.787 71.52C117.387 71.1067 116.807 70.9 116.047 70.9C115.354 70.9 114.794 71.12 114.367 71.56C113.94 71.9867 113.707 72.4867 113.667 73.06ZM118.707 75.6L120.667 76.22C120.387 77.1133 119.86 77.8533 119.087 78.44C118.327 79.0133 117.387 79.3 116.267 79.3C114.88 79.3 113.7 78.8267 112.727 77.88C111.767 76.9333 111.287 75.6667 111.287 74.08C111.287 72.5867 111.754 71.36 112.687 70.4C113.634 69.44 114.747 68.96 116.027 68.96C117.52 68.96 118.687 69.42 119.527 70.34C120.367 71.2467 120.787 72.4733 120.787 74.02C120.787 74.4333 120.767 74.68 120.727 74.76H113.607C113.634 75.4933 113.9 76.1 114.407 76.58C114.927 77.06 115.547 77.3 116.267 77.3C117.52 77.3 118.334 76.7333 118.707 75.6ZM130.305 76.4C130.838 76.9467 131.485 77.22 132.245 77.22C133.005 77.22 133.645 76.9467 134.165 76.4C134.698 75.8533 134.965 75.0933 134.965 74.12C134.965 73.16 134.698 72.4133 134.165 71.88C133.645 71.3333 133.005 71.06 132.245 71.06C131.485 71.06 130.838 71.3333 130.305 71.88C129.785 72.4133 129.525 73.16 129.525 74.12C129.525 75.08 129.785 75.84 130.305 76.4ZM132.245 68.96C133.712 68.96 134.918 69.4467 135.865 70.42C136.825 71.3933 137.305 72.6267 137.305 74.12C137.305 75.6133 136.825 76.8533 135.865 77.84C134.918 78.8133 133.712 79.3 132.245 79.3C130.792 79.3 129.585 78.8133 128.625 77.84C127.678 76.8533 127.205 75.6133 127.205 74.12C127.205 72.6267 127.678 71.3933 128.625 70.42C129.585 69.4467 130.792 68.96 132.245 68.96ZM141.867 73.38V79H139.547V69.26H141.807V70.56C142.114 70.0267 142.52 69.6333 143.027 69.38C143.547 69.1133 144.1 68.98 144.687 68.98C145.834 68.98 146.707 69.34 147.307 70.06C147.907 70.78 148.207 71.7067 148.207 72.84V79H145.887V73.24C145.887 72.5867 145.727 72.0667 145.407 71.68C145.087 71.28 144.58 71.08 143.887 71.08C143.247 71.08 142.747 71.3 142.387 71.74C142.04 72.1667 141.867 72.7133 141.867 73.38ZM158.932 66.28V69.26H160.952V71.32H158.932V75.84C158.932 76.2667 159.032 76.58 159.232 76.78C159.432 76.9667 159.746 77.06 160.172 77.06C160.439 77.06 160.706 77.0333 160.972 76.98V78.9C160.626 79.0467 160.152 79.12 159.552 79.12C158.646 79.12 157.932 78.8667 157.412 78.36C156.892 77.84 156.632 77.1267 156.632 76.22V71.32H154.832V69.26H155.332C155.826 69.26 156.199 69.12 156.452 68.84C156.706 68.56 156.832 68.1933 156.832 67.74V66.28H158.932ZM165.383 73.28V79H163.063V64.52H165.383V70.2C166.009 69.3867 166.936 68.98 168.163 68.98C169.309 68.98 170.189 69.34 170.803 70.06C171.416 70.78 171.723 71.7067 171.723 72.84V79H169.403V73.24C169.403 72.5867 169.243 72.0667 168.923 71.68C168.603 71.28 168.096 71.08 167.403 71.08C166.789 71.08 166.303 71.2867 165.943 71.7C165.596 72.1133 165.409 72.64 165.383 73.28ZM176.167 73.06H180.947C180.92 72.4467 180.7 71.9333 180.287 71.52C179.887 71.1067 179.307 70.9 178.547 70.9C177.854 70.9 177.294 71.12 176.867 71.56C176.44 71.9867 176.207 72.4867 176.167 73.06ZM181.207 75.6L183.167 76.22C182.887 77.1133 182.36 77.8533 181.587 78.44C180.827 79.0133 179.887 79.3 178.767 79.3C177.38 79.3 176.2 78.8267 175.227 77.88C174.267 76.9333 173.787 75.6667 173.787 74.08C173.787 72.5867 174.254 71.36 175.187 70.4C176.134 69.44 177.247 68.96 178.527 68.96C180.02 68.96 181.187 69.42 182.027 70.34C182.867 71.2467 183.287 72.4733 183.287 74.02C183.287 74.4333 183.267 74.68 183.227 74.76H176.107C176.134 75.4933 176.4 76.1 176.907 76.58C177.427 77.06 178.047 77.3 178.767 77.3C180.02 77.3 180.834 76.7333 181.207 75.6ZM194.705 71.1C193.958 71.1 193.325 71.3733 192.805 71.92C192.285 72.4533 192.025 73.1867 192.025 74.12C192.025 75.0667 192.285 75.8133 192.805 76.36C193.338 76.9067 193.985 77.18 194.745 77.18C195.425 77.18 195.965 77 196.365 76.64C196.778 76.2667 197.052 75.8467 197.185 75.38L199.225 76.12C198.958 76.9867 198.438 77.7333 197.665 78.36C196.905 78.9867 195.932 79.3 194.745 79.3C193.318 79.3 192.118 78.8067 191.145 77.82C190.185 76.8333 189.705 75.6 189.705 74.12C189.705 72.6267 190.178 71.3933 191.125 70.42C192.085 69.4467 193.272 68.96 194.685 68.96C195.898 68.96 196.885 69.2733 197.645 69.9C198.418 70.5267 198.918 71.28 199.145 72.16L197.065 72.92C196.932 72.4133 196.672 71.9867 196.285 71.64C195.912 71.28 195.385 71.1 194.705 71.1ZM203.528 76.4C204.061 76.9467 204.708 77.22 205.468 77.22C206.228 77.22 206.868 76.9467 207.388 76.4C207.921 75.8533 208.188 75.0933 208.188 74.12C208.188 73.16 207.921 72.4133 207.388 71.88C206.868 71.3333 206.228 71.06 205.468 71.06C204.708 71.06 204.061 71.3333 203.528 71.88C203.008 72.4133 202.748 73.16 202.748 74.12C202.748 75.08 203.008 75.84 203.528 76.4ZM205.468 68.96C206.934 68.96 208.141 69.4467 209.088 70.42C210.048 71.3933 210.528 72.6267 210.528 74.12C210.528 75.6133 210.048 76.8533 209.088 77.84C208.141 78.8133 206.934 79.3 205.468 79.3C204.014 79.3 202.808 78.8133 201.848 77.84C200.901 76.8533 200.428 75.6133 200.428 74.12C200.428 72.6267 200.901 71.3933 201.848 70.42C202.808 69.4467 204.014 68.96 205.468 68.96ZM219.051 77.92C218.824 78.3467 218.451 78.68 217.931 78.92C217.424 79.16 216.878 79.28 216.291 79.28C215.158 79.28 214.258 78.9133 213.591 78.18C212.938 77.4467 212.611 76.52 212.611 75.4V69.26H214.931V74.98C214.931 75.6333 215.091 76.1667 215.411 76.58C215.731 76.9933 216.224 77.2 216.891 77.2C217.544 77.2 218.044 77 218.391 76.6C218.751 76.2 218.931 75.6733 218.931 75.02V69.26H221.251V77.22C221.251 77.8067 221.284 78.4 221.351 79H219.131C219.078 78.7067 219.051 78.3467 219.051 77.92ZM226.574 73.38V79H224.254V69.26H226.514V70.56C226.821 70.0267 227.227 69.6333 227.734 69.38C228.254 69.1133 228.807 68.98 229.394 68.98C230.541 68.98 231.414 69.34 232.014 70.06C232.614 70.78 232.914 71.7067 232.914 72.84V79H230.594V73.24C230.594 72.5867 230.434 72.0667 230.114 71.68C229.794 71.28 229.287 71.08 228.594 71.08C227.954 71.08 227.454 71.3 227.094 71.74C226.747 72.1667 226.574 72.7133 226.574 73.38ZM238.678 66.28V69.26H240.698V71.32H238.678V75.84C238.678 76.2667 238.778 76.58 238.978 76.78C239.178 76.9667 239.492 77.06 239.918 77.06C240.185 77.06 240.452 77.0333 240.718 76.98V78.9C240.372 79.0467 239.898 79.12 239.298 79.12C238.392 79.12 237.678 78.8667 237.158 78.36C236.638 77.84 236.378 77.1267 236.378 76.22V71.32H234.578V69.26H235.078C235.572 69.26 235.945 69.12 236.198 68.84C236.452 68.56 236.578 68.1933 236.578 67.74V66.28H238.678ZM244.604 73.06H249.384C249.358 72.4467 249.138 71.9333 248.724 71.52C248.324 71.1067 247.744 70.9 246.984 70.9C246.291 70.9 245.731 71.12 245.304 71.56C244.878 71.9867 244.644 72.4867 244.604 73.06ZM249.644 75.6L251.604 76.22C251.324 77.1133 250.798 77.8533 250.024 78.44C249.264 79.0133 248.324 79.3 247.204 79.3C245.818 79.3 244.638 78.8267 243.664 77.88C242.704 76.9333 242.224 75.6667 242.224 74.08C242.224 72.5867 242.691 71.36 243.624 70.4C244.571 69.44 245.684 68.96 246.964 68.96C248.458 68.96 249.624 69.42 250.464 70.34C251.304 71.2467 251.724 72.4733 251.724 74.02C251.724 74.4333 251.704 74.68 251.664 74.76H244.544C244.571 75.4933 244.838 76.1 245.344 76.58C245.864 77.06 246.484 77.3 247.204 77.3C248.458 77.3 249.271 76.7333 249.644 75.6ZM259.641 69.2V71.56C259.375 71.52 259.121 71.5 258.881 71.5C257.135 71.5 256.261 72.4533 256.261 74.36V79H253.941V69.26H256.201V70.82C256.428 70.3 256.795 69.8933 257.301 69.6C257.808 69.2933 258.381 69.14 259.021 69.14C259.235 69.14 259.441 69.16 259.641 69.2ZM268.84 76.4C269.373 76.9467 270.02 77.22 270.78 77.22C271.54 77.22 272.18 76.9467 272.7 76.4C273.233 75.8533 273.5 75.0933 273.5 74.12C273.5 73.16 273.233 72.4133 272.7 71.88C272.18 71.3333 271.54 71.06 270.78 71.06C270.02 71.06 269.373 71.3333 268.84 71.88C268.32 72.4133 268.06 73.16 268.06 74.12C268.06 75.08 268.32 75.84 268.84 76.4ZM270.78 68.96C272.247 68.96 273.453 69.4467 274.4 70.42C275.36 71.3933 275.84 72.6267 275.84 74.12C275.84 75.6133 275.36 76.8533 274.4 77.84C273.453 78.8133 272.247 79.3 270.78 79.3C269.327 79.3 268.12 78.8133 267.16 77.84C266.213 76.8533 265.74 75.6133 265.74 74.12C265.74 72.6267 266.213 71.3933 267.16 70.42C268.12 69.4467 269.327 68.96 270.78 68.96ZM283.782 69.2V71.56C283.515 71.52 283.262 71.5 283.022 71.5C281.275 71.5 280.402 72.4533 280.402 74.36V79H278.082V69.26H280.342V70.82C280.569 70.3 280.935 69.8933 281.442 69.6C281.949 69.2933 282.522 69.14 283.162 69.14C283.375 69.14 283.582 69.16 283.782 69.2ZM292.941 79H290.641V69.26H292.941V79ZM290.721 66.9C290.427 66.6067 290.281 66.2533 290.281 65.84C290.281 65.4267 290.427 65.0733 290.721 64.78C291.014 64.4733 291.367 64.32 291.781 64.32C292.207 64.32 292.567 64.4667 292.861 64.76C293.154 65.0533 293.301 65.4133 293.301 65.84C293.301 66.2533 293.154 66.6067 292.861 66.9C292.567 67.1933 292.207 67.34 291.781 67.34C291.367 67.34 291.014 67.1933 290.721 66.9ZM298.254 73.38V79H295.934V69.26H298.194V70.56C298.5 70.0267 298.907 69.6333 299.414 69.38C299.934 69.1133 300.487 68.98 301.074 68.98C302.22 68.98 303.094 69.34 303.694 70.06C304.294 70.78 304.594 71.7067 304.594 72.84V79H302.274V73.24C302.274 72.5867 302.114 72.0667 301.794 71.68C301.474 71.28 300.967 71.08 300.274 71.08C299.634 71.08 299.134 71.3 298.774 71.74C298.427 72.1667 298.254 72.7133 298.254 73.38ZM315.319 66.28V69.26H317.339V71.32H315.319V75.84C315.319 76.2667 315.419 76.58 315.619 76.78C315.819 76.9667 316.132 77.06 316.559 77.06C316.826 77.06 317.092 77.0333 317.359 76.98V78.9C317.012 79.0467 316.539 79.12 315.939 79.12C315.032 79.12 314.319 78.8667 313.799 78.36C313.279 77.84 313.019 77.1267 313.019 76.22V71.32H311.219V69.26H311.719C312.212 69.26 312.586 69.12 312.839 68.84C313.092 68.56 313.219 68.1933 313.219 67.74V66.28H315.319ZM321.769 73.28V79H319.449V64.52H321.769V70.2C322.396 69.3867 323.323 68.98 324.549 68.98C325.696 68.98 326.576 69.34 327.189 70.06C327.803 70.78 328.109 71.7067 328.109 72.84V79H325.789V73.24C325.789 72.5867 325.629 72.0667 325.309 71.68C324.989 71.28 324.483 71.08 323.789 71.08C323.176 71.08 322.689 71.2867 322.329 71.7C321.983 72.1133 321.796 72.64 321.769 73.28ZM332.554 73.06H337.334C337.307 72.4467 337.087 71.9333 336.674 71.52C336.274 71.1067 335.694 70.9 334.934 70.9C334.24 70.9 333.68 71.12 333.254 71.56C332.827 71.9867 332.594 72.4867 332.554 73.06ZM337.594 75.6L339.554 76.22C339.274 77.1133 338.747 77.8533 337.974 78.44C337.214 79.0133 336.274 79.3 335.154 79.3C333.767 79.3 332.587 78.8267 331.614 77.88C330.654 76.9333 330.174 75.6667 330.174 74.08C330.174 72.5867 330.64 71.36 331.574 70.4C332.52 69.44 333.634 68.96 334.914 68.96C336.407 68.96 337.574 69.42 338.414 70.34C339.254 71.2467 339.674 72.4733 339.674 74.02C339.674 74.4333 339.654 74.68 339.614 74.76H332.494C332.52 75.4933 332.787 76.1 333.294 76.58C333.814 77.06 334.434 77.3 335.154 77.3C336.407 77.3 337.22 76.7333 337.594 75.6ZM351.092 71.1C350.345 71.1 349.712 71.3733 349.192 71.92C348.672 72.4533 348.412 73.1867 348.412 74.12C348.412 75.0667 348.672 75.8133 349.192 76.36C349.725 76.9067 350.372 77.18 351.132 77.18C351.812 77.18 352.352 77 352.752 76.64C353.165 76.2667 353.438 75.8467 353.572 75.38L355.612 76.12C355.345 76.9867 354.825 77.7333 354.052 78.36C353.292 78.9867 352.318 79.3 351.132 79.3C349.705 79.3 348.505 78.8067 347.532 77.82C346.572 76.8333 346.092 75.6 346.092 74.12C346.092 72.6267 346.565 71.3933 347.512 70.42C348.472 69.4467 349.658 68.96 351.072 68.96C352.285 68.96 353.272 69.2733 354.032 69.9C354.805 70.5267 355.305 71.28 355.532 72.16L353.452 72.92C353.318 72.4133 353.058 71.9867 352.672 71.64C352.298 71.28 351.772 71.1 351.092 71.1ZM363.875 77.92C363.648 78.3467 363.275 78.68 362.755 78.92C362.248 79.16 361.702 79.28 361.115 79.28C359.982 79.28 359.082 78.9133 358.415 78.18C357.762 77.4467 357.435 76.52 357.435 75.4V69.26H359.755V74.98C359.755 75.6333 359.915 76.1667 360.235 76.58C360.555 76.9933 361.048 77.2 361.715 77.2C362.368 77.2 362.868 77 363.215 76.6C363.575 76.2 363.755 75.6733 363.755 75.02V69.26H366.075V77.22C366.075 77.8067 366.108 78.4 366.175 79H363.955C363.902 78.7067 363.875 78.3467 363.875 77.92ZM371.378 82.8H369.078V69.26H371.318V70.58C371.571 70.14 371.971 69.7733 372.518 69.48C373.065 69.1867 373.698 69.04 374.418 69.04C375.818 69.04 376.918 69.52 377.718 70.48C378.518 71.4267 378.918 72.64 378.918 74.12C378.918 75.6 378.498 76.8267 377.658 77.8C376.818 78.76 375.711 79.24 374.338 79.24C373.671 79.24 373.078 79.1133 372.558 78.86C372.038 78.6067 371.645 78.2867 371.378 77.9V82.8ZM376.598 74.12C376.598 73.2133 376.358 72.4867 375.878 71.94C375.398 71.38 374.765 71.1 373.978 71.1C373.205 71.1 372.571 71.38 372.078 71.94C371.598 72.4867 371.358 73.2133 371.358 74.12C371.358 75.04 371.598 75.78 372.078 76.34C372.571 76.9 373.205 77.18 373.978 77.18C374.751 77.18 375.378 76.9 375.858 76.34C376.351 75.78 376.598 75.04 376.598 74.12ZM383.408 79H381.148V64.52H383.428V70.46C383.668 70.0467 384.062 69.7 384.608 69.42C385.155 69.14 385.782 69 386.488 69C387.902 69 389.002 69.48 389.788 70.44C390.588 71.3867 390.988 72.6 390.988 74.08C390.988 75.5867 390.568 76.8267 389.728 77.8C388.902 78.76 387.795 79.24 386.408 79.24C385.022 79.24 384.022 78.7267 383.408 77.7V79ZM387.908 76.36C388.402 75.8 388.648 75.0467 388.648 74.1C388.648 73.1533 388.408 72.4133 387.928 71.88C387.448 71.3333 386.815 71.06 386.028 71.06C385.268 71.06 384.642 71.3333 384.148 71.88C383.655 72.4133 383.408 73.1533 383.408 74.1C383.408 75.0333 383.655 75.78 384.148 76.34C384.642 76.9 385.268 77.18 386.028 77.18C386.802 77.18 387.428 76.9067 387.908 76.36ZM395.559 76.4C396.092 76.9467 396.739 77.22 397.499 77.22C398.259 77.22 398.899 76.9467 399.419 76.4C399.952 75.8533 400.219 75.0933 400.219 74.12C400.219 73.16 399.952 72.4133 399.419 71.88C398.899 71.3333 398.259 71.06 397.499 71.06C396.739 71.06 396.092 71.3333 395.559 71.88C395.039 72.4133 394.779 73.16 394.779 74.12C394.779 75.08 395.039 75.84 395.559 76.4ZM397.499 68.96C398.965 68.96 400.172 69.4467 401.119 70.42C402.079 71.3933 402.559 72.6267 402.559 74.12C402.559 75.6133 402.079 76.8533 401.119 77.84C400.172 78.8133 398.965 79.3 397.499 79.3C396.045 79.3 394.839 78.8133 393.879 77.84C392.932 76.8533 392.459 75.6133 392.459 74.12C392.459 72.6267 392.932 71.3933 393.879 70.42C394.839 69.4467 396.045 68.96 397.499 68.96ZM404.201 76.36C404.201 75.5333 404.467 74.8733 405.001 74.38C405.547 73.8733 406.261 73.5533 407.141 73.42L409.641 73.04C410.121 72.9733 410.361 72.74 410.361 72.34C410.361 71.9 410.207 71.5467 409.901 71.28C409.594 71 409.134 70.86 408.521 70.86C407.934 70.86 407.467 71.0267 407.121 71.36C406.774 71.68 406.574 72.1 406.521 72.62L404.401 72.14C404.494 71.26 404.914 70.5133 405.661 69.9C406.407 69.2733 407.354 68.96 408.501 68.96C409.914 68.96 410.954 69.3 411.621 69.98C412.301 70.66 412.641 71.5333 412.641 72.6V77.44C412.641 78.08 412.681 78.6 412.761 79H410.601C410.534 78.8 410.501 78.3867 410.501 77.76C409.861 78.7867 408.861 79.3 407.501 79.3C406.514 79.3 405.714 79.0133 405.101 78.44C404.501 77.8533 404.201 77.16 404.201 76.36ZM407.941 77.48C408.661 77.48 409.241 77.2867 409.681 76.9C410.134 76.5 410.361 75.8533 410.361 74.96V74.52L407.821 74.9C406.954 75.0467 406.521 75.4867 406.521 76.22C406.521 76.5667 406.647 76.8667 406.901 77.12C407.154 77.36 407.501 77.48 407.941 77.48ZM421.145 69.2V71.56C420.879 71.52 420.625 71.5 420.385 71.5C418.639 71.5 417.765 72.4533 417.765 74.36V79H415.445V69.26H417.705V70.82C417.932 70.3 418.299 69.8933 418.805 69.6C419.312 69.2933 419.885 69.14 420.525 69.14C420.739 69.14 420.945 69.16 421.145 69.2ZM424.544 74.1C424.544 75.0333 424.784 75.7867 425.264 76.36C425.744 76.92 426.378 77.2 427.164 77.2C427.924 77.2 428.544 76.9133 429.024 76.34C429.504 75.7667 429.744 75.0133 429.744 74.08C429.744 73.16 429.511 72.4267 429.044 71.88C428.578 71.3333 427.958 71.06 427.184 71.06C426.411 71.06 425.778 71.34 425.284 71.9C424.791 72.4467 424.544 73.18 424.544 74.1ZM431.984 64.52V77.22C431.984 77.8733 432.018 78.4667 432.084 79H429.864C429.798 78.6267 429.764 78.2067 429.764 77.74C429.524 78.18 429.151 78.54 428.644 78.82C428.138 79.1 427.558 79.24 426.904 79.24C425.518 79.24 424.391 78.7533 423.524 77.78C422.658 76.8067 422.224 75.58 422.224 74.1C422.224 72.6733 422.658 71.4667 423.524 70.48C424.404 69.4933 425.518 69 426.864 69C427.638 69 428.258 69.14 428.724 69.42C429.204 69.7 429.538 70.0267 429.724 70.4V64.52H431.984ZM435.257 78.66C434.95 78.34 434.797 77.9533 434.797 77.5C434.797 77.0467 434.95 76.66 435.257 76.34C435.577 76.02 435.964 75.86 436.417 75.86C436.87 75.86 437.257 76.02 437.577 76.34C437.897 76.66 438.057 77.0467 438.057 77.5C438.057 77.9533 437.897 78.34 437.577 78.66C437.257 78.9667 436.87 79.12 436.417 79.12C435.964 79.12 435.577 78.9667 435.257 78.66Z" fill="#3F3232"/>
</svg>
