<svg width="91" height="90" viewBox="0 0 91 90" fill="none" xmlns="http://www.w3.org/2000/svg">
<g id="emojione-monotone:face-savoring-food">
<path id="Vector" d="M45.5 3.13159C21.9424 3.13159 2.84375 21.8178 2.84375 44.855C2.84375 67.9033 21.9424 86.5895 45.5 86.5895C69.0548 86.5895 88.1562 67.9033 88.1562 44.855C88.1562 21.8095 69.0548 3.13159 45.5 3.13159ZM76.9917 69.0911C76.2628 69.8174 75.3922 70.3929 74.4316 70.7836C73.4709 71.1743 72.4398 71.3721 71.3994 71.3654C68.0282 71.3654 64.3384 69.4987 60.7283 65.967C59.3164 64.5858 58.0608 63.3548 57.4779 62.6259C59.7585 61.6023 61.8774 60.264 63.7697 58.6519L74.5617 66.7154L66.312 56.1426C67.9468 54.27 69.2606 52.1505 70.2022 49.8666C70.9117 50.3548 72.2654 51.6763 73.7981 53.1771C79.7999 59.0498 81.0227 65.1477 76.9917 69.0911ZM75.8115 51.2089C73.4413 48.8915 72.1673 47.6494 71.0667 47.1556C71.125 45.7382 69.1927 45.1958 68.4064 46.2779C62.2525 54.7725 54.9683 56.9118 45.5 56.9118C36.0317 56.9118 28.7475 54.7739 22.5922 46.2779C21.7348 45.0956 19.4783 45.8398 19.9773 47.5562C23.2093 58.6909 34.1961 65.1756 45.5 65.1756C48.6526 65.1702 51.7831 64.6609 54.7678 63.6678C55.3749 64.6581 56.6134 65.8711 58.7192 67.9325C62.6279 71.7548 66.7385 73.8594 70.6587 74.0986C63.8536 79.7153 55.0777 83.1121 45.5 83.1121C23.9387 83.1121 6.39844 65.9503 6.39844 44.855C6.39844 23.7666 23.9387 6.609 45.5 6.609C67.0599 6.609 84.6016 23.7666 84.6016 44.855C84.6016 50.1267 83.4982 55.1481 81.5175 59.7216C80.6615 57.0843 78.8757 54.2092 75.8115 51.2089Z" fill="#2E2E2E"/>
<path id="Vector_2" d="M29.9519 24.2546C25.9692 24.2546 21.9865 27.8127 19.3447 34.922C19.0831 35.6383 20.4452 36.9291 21.1277 36.2267C23.69 33.5824 26.7541 32.5295 29.9533 32.5295C33.1525 32.5295 36.2153 33.5824 38.7789 36.2267C39.46 36.9291 40.8236 35.6369 40.5619 34.922C37.9172 27.8113 33.9346 24.2546 29.9519 24.2546Z" fill="#FF9401"/>
<path id="Vector_3" d="M61.0485 24.2546C57.0658 24.2546 53.0832 27.8127 50.4399 34.922C50.1783 35.6383 51.5418 36.9291 52.2229 36.2267C54.7866 33.5824 57.8493 32.5295 61.0485 32.5295C64.2477 32.5295 67.3104 33.5824 69.8741 36.2267C70.5552 36.9291 71.9187 35.6369 71.6571 34.922C69.0124 27.8113 65.0298 24.2546 61.0485 24.2546Z" fill="#FF9401"/>
</g>
</svg>
