<svg width="54" height="17" viewBox="0 0 54 17" fill="none" xmlns="http://www.w3.org/2000/svg">
<path d="M6.318 7.692L6.84 4.722C7.326 4.938 7.668 5.352 7.938 5.874L10.134 4.74C9.612 3.462 8.604 2.598 7.29 2.274L7.578 0.6H6.354L6.084 2.148C4.194 2.166 2.142 3.228 1.728 5.55C1.296 7.962 3.024 8.916 4.752 9.654L4.194 12.804C3.222 12.624 2.646 12.03 2.376 11.202L0.126 12.354C0.576 13.902 1.854 14.964 3.78 15.198L3.492 16.8H4.716L4.986 15.234C7.218 15.126 9 13.992 9.396 11.814C9.864 9.186 7.884 8.394 6.318 7.692ZM4.248 5.748C4.374 5.064 4.95 4.65 5.652 4.56L5.202 7.152C4.536 6.81 4.14 6.414 4.248 5.748ZM6.858 11.544C6.732 12.138 6.228 12.642 5.418 12.804L5.886 10.14C6.57 10.482 6.984 10.86 6.858 11.544ZM19.5223 2.4L15.9943 3.57L16.2283 5.784L18.7123 5.118L16.9843 15H19.4683L21.6823 2.4H19.5223ZM27.8508 2.148C25.1328 2.148 23.1348 3.786 22.6848 6.36C22.2528 8.808 23.8548 10.698 26.1948 10.878L22.6848 15H25.6728L30.4788 9.33C31.1268 8.646 31.5768 7.746 31.7748 6.702C32.2068 4.128 30.5508 2.148 27.8508 2.148ZM25.1688 6.522C25.3848 5.262 26.4108 4.488 27.5808 4.488C28.7688 4.488 29.5248 5.244 29.2908 6.522C29.0748 7.8 28.0488 8.574 26.8608 8.574C25.6908 8.574 24.9348 7.8 25.1688 6.522ZM30.5523 15.234C31.4883 15.234 32.2083 14.568 32.3523 13.74C32.5143 12.894 31.9383 12.174 31.0923 12.174C30.1923 12.174 29.4543 12.822 29.3103 13.668C29.1663 14.514 29.7063 15.234 30.5523 15.234ZM38.8371 2.148C36.1191 2.148 34.1211 3.786 33.6711 6.36C33.2391 8.808 34.8411 10.698 37.1811 10.878L33.6711 15H36.6591L41.4651 9.33C42.1131 8.646 42.5631 7.746 42.7611 6.702C43.1931 4.128 41.5371 2.148 38.8371 2.148ZM36.1551 6.522C36.3711 5.262 37.3971 4.488 38.5671 4.488C39.7551 4.488 40.5111 5.244 40.2771 6.522C40.0611 7.8 39.0351 8.574 37.8471 8.574C36.6771 8.574 35.9211 7.8 36.1551 6.522ZM48.7863 2.148C46.0683 2.148 44.0703 3.786 43.6203 6.36C43.1883 8.808 44.7903 10.698 47.1303 10.878L43.6203 15H46.6083L51.4143 9.33C52.0623 8.646 52.5123 7.746 52.7103 6.702C53.1423 4.128 51.4863 2.148 48.7863 2.148ZM46.1043 6.522C46.3203 5.262 47.3463 4.488 48.5163 4.488C49.7043 4.488 50.4603 5.244 50.2263 6.522C50.0103 7.8 48.9843 8.574 47.7963 8.574C46.6263 8.574 45.8703 7.8 46.1043 6.522Z" fill="#FF9401"/>
</svg>
