<svg width="90" height="90" viewBox="0 0 90 90" fill="none" xmlns="http://www.w3.org/2000/svg">
<g id="home-delivery">
<path id="Vector" d="M89.8945 26.9297C89.8594 26.8418 89.8066 26.7715 89.7539 26.6836C89.7012 26.6133 89.666 26.5254 89.6133 26.4727C89.543 26.4023 89.4551 26.3496 89.3672 26.2793C89.3145 26.2441 89.2617 26.1914 89.209 26.1562L45.6152 5.0625C45.5801 5.04492 45.5625 5.04492 45.5273 5.04492C45.4395 5.00977 45.3516 4.99219 45.2461 4.97461C45.1582 4.95703 45.0703 4.93945 44.9824 4.93945C44.8945 4.93945 44.8066 4.95703 44.7188 4.97461C44.6309 4.99219 44.543 5.00977 44.4551 5.04492C44.4199 5.0625 44.4023 5.04492 44.3672 5.0625L23.9062 14.9766V11.9531C24.6797 11.9531 25.3125 11.3203 25.3125 10.5469V6.32812C25.3125 5.55469 24.6797 4.92188 23.9062 4.92188H11.25C10.4766 4.92188 9.84375 5.55469 9.84375 6.32812V10.5469C9.84375 11.3203 10.4766 11.9531 11.25 11.9531V21.0938L0.791016 26.1562C0.720703 26.1914 0.685547 26.2441 0.632812 26.2793C0.544922 26.332 0.457031 26.3848 0.386719 26.4727C0.333984 26.543 0.28125 26.6133 0.246094 26.6836C0.193359 26.7539 0.140625 26.8242 0.105469 26.9297C0.0703125 27.0176 0.0527344 27.123 0.0527344 27.2285C0.0351562 27.2812 0 27.3516 0 27.4219V33.0469C0 33.0645 0 33.0645 0 33.082C0 33.1699 0.0351562 33.2578 0.0527344 33.3633C0.0703125 33.4512 0.0878906 33.5566 0.123047 33.627C0.123047 33.6445 0.123047 33.6445 0.123047 33.6621C0.193359 33.8027 0.28125 33.9258 0.386719 34.0137C0.404297 34.0312 0.439453 34.0488 0.457031 34.084C0.5625 34.1719 0.667969 34.2422 0.773438 34.2949C0.808594 34.3125 0.861328 34.3301 0.896484 34.3477C1.05469 34.4004 1.21289 34.4355 1.37109 34.4531C1.37109 34.4531 1.37109 34.4531 1.38867 34.4531C1.59961 34.4531 1.77539 34.4004 1.95117 34.3301C1.96875 34.3301 1.96875 34.3301 1.98633 34.3301L4.18359 33.2754V83.6719C4.18359 84.4453 4.81641 85.0781 5.58984 85.0781H84.3398C85.1133 85.0781 85.7461 84.4453 85.7461 83.6719V33.2578L87.9434 34.3301C87.9609 34.3301 87.9609 34.3301 87.9785 34.3301C88.1543 34.418 88.3477 34.4531 88.541 34.4531C88.541 34.4531 88.541 34.4531 88.5586 34.4531C88.7168 34.4531 88.8926 34.418 89.0332 34.3477C89.0859 34.3301 89.1211 34.3125 89.1562 34.2949C89.2793 34.2422 89.3848 34.1719 89.4727 34.084C89.4902 34.0664 89.5254 34.0488 89.543 34.0137C89.6484 33.9082 89.7363 33.7852 89.8066 33.6621C89.8066 33.6445 89.8066 33.6445 89.8066 33.627C89.8418 33.5391 89.8594 33.4512 89.877 33.3633C89.8945 33.2754 89.9297 33.1875 89.9297 33.082C89.9297 33.0645 89.9297 33.0645 89.9297 33.0469V27.4219C89.9297 27.3516 89.8945 27.2812 89.8945 27.2109C89.9473 27.123 89.9297 27.0176 89.8945 26.9297ZM45.6152 10.6875C45.5801 10.6699 45.5625 10.6699 45.5273 10.6699C45.4395 10.6348 45.3516 10.6172 45.2461 10.5996C45.1582 10.582 45.0703 10.5645 44.9824 10.5645C44.8945 10.5645 44.8066 10.582 44.7188 10.5996C44.6309 10.6172 44.543 10.6348 44.4551 10.6699C44.4199 10.6875 44.4023 10.6699 44.3672 10.6875L2.8125 30.7969V28.3008L45 7.89258L87.1875 28.3008V30.7969L45.6152 10.6875ZM12.6562 7.73438H22.5V9.14062H12.6562V7.73438ZM14.0625 11.9531H21.0938V16.3301L14.0625 19.7402V11.9531ZM82.9688 82.2656H7.03125V31.8867L45 13.5176L82.9688 31.8867V82.2656Z" fill="#2E2E2E"/>
<path id="Vector_2" d="M45 34.4531C34.1367 34.4531 25.3125 43.2773 25.3125 54.1406C25.3125 65.0039 34.1367 73.8281 45 73.8281C55.8633 73.8281 64.6875 65.0039 64.6875 54.1406C64.6875 43.2773 55.8633 34.4531 45 34.4531ZM45 71.0156C35.7012 71.0156 28.125 63.4395 28.125 54.1406C28.125 44.8418 35.7012 37.2656 45 37.2656C54.2988 37.2656 61.875 44.8418 61.875 54.1406C61.875 63.4395 54.2988 71.0156 45 71.0156Z" fill="#FF9401"/>
<path id="Vector_3" d="M45 44.2969C39.5684 44.2969 35.1562 48.709 35.1562 54.1406C35.1562 59.5723 39.5684 63.9844 45 63.9844C50.4316 63.9844 54.8438 59.5723 54.8438 54.1406C54.8438 48.709 50.4316 44.2969 45 44.2969ZM45 61.1719C41.1152 61.1719 37.9688 58.0254 37.9688 54.1406C37.9688 50.2559 41.1152 47.1094 45 47.1094C48.8848 47.1094 52.0312 50.2559 52.0312 54.1406C52.0312 58.0254 48.8848 61.1719 45 61.1719Z" fill="#FF9401"/>
<path id="Vector_4" d="M25.3125 45.7031V35.8594C25.3125 35.0859 24.6797 34.4531 23.9062 34.4531C23.1328 34.4531 22.5 35.0859 22.5 35.8594V41.4844H21.7969V35.8594C21.7969 35.0859 21.1641 34.4531 20.3906 34.4531C19.6172 34.4531 18.9844 35.0859 18.9844 35.8594V41.4844H18.2812V35.8594C18.2812 35.0859 17.6484 34.4531 16.875 34.4531C16.1016 34.4531 15.4688 35.0859 15.4688 35.8594V45.7031C15.4688 47.25 16.7344 48.5156 18.2812 48.5156H18.9844V72.4395C18.9844 73.2129 19.6172 73.8457 20.3906 73.8457C21.1641 73.8457 21.7969 73.2129 21.7969 72.4395V48.5156H22.4824C22.4824 48.5156 22.4824 48.5156 22.5 48.5156C24.0469 48.5156 25.3125 47.2676 25.3125 45.7031ZM22.5 44.2969V45.7031C22.5 45.7031 22.5 45.7031 22.5 45.7207H18.2812V44.3145H22.5V44.2969Z" fill="#FF9401"/>
<path id="Vector_5" d="M66.0938 72.4395C66.0938 73.2129 66.7266 73.8457 67.5 73.8457C68.2734 73.8457 68.9062 73.2129 68.9062 72.4395V56.9531H71.7188C72.4922 56.9531 73.125 56.3203 73.125 55.5469V40.0781C73.125 36.9844 70.6113 34.4531 67.5 34.4531C66.7266 34.4531 66.0938 35.0859 66.0938 35.8594C66.0938 35.877 66.0938 35.8945 66.0938 35.8945V72.4395ZM70.3125 40.0781V54.1406H68.9062V37.6523C69.75 38.1445 70.3125 39.041 70.3125 40.0781Z" fill="#FF9401"/>
</g>
</svg>
