<svg width="331" height="104" viewBox="0 0 331 104" fill="none" xmlns="http://www.w3.org/2000/svg">
<rect x="2" y="58" width="100" height="22" rx="11" fill="#C4C4C4" fill-opacity="0.26"/>
<path d="M25.7 73L25.03 71.22H22.03L21.37 73H20.1L22.86 65.91H24.25L27.01 73H25.7ZM23.53 67.21L22.45 70.11H24.61L23.53 67.21ZM29.1594 71.9H30.4194C31.0727 71.9 31.6094 71.6933 32.0294 71.28C32.456 70.86 32.6694 70.2567 32.6694 69.47C32.6694 68.6767 32.4594 68.07 32.0394 67.65C31.6194 67.2233 31.0827 67.01 30.4294 67.01H29.1594V71.9ZM30.4594 73H27.9594V65.91H30.4694C31.4694 65.91 32.2927 66.2267 32.9394 66.86C33.5927 67.4933 33.9194 68.3633 33.9194 69.47C33.9194 70.57 33.5927 71.4333 32.9394 72.06C32.286 72.6867 31.4594 73 30.4594 73ZM36.3762 71.9H37.6362C38.2895 71.9 38.8262 71.6933 39.2462 71.28C39.6728 70.86 39.8862 70.2567 39.8862 69.47C39.8862 68.6767 39.6762 68.07 39.2562 67.65C38.8362 67.2233 38.2995 67.01 37.6462 67.01H36.3762V71.9ZM37.6762 73H35.1762V65.91H37.6862C38.6862 65.91 39.5095 66.2267 40.1562 66.86C40.8095 67.4933 41.1362 68.3633 41.1362 69.47C41.1362 70.57 40.8095 71.4333 40.1562 72.06C39.5028 72.6867 38.6762 73 37.6762 73ZM49.9634 67.04H47.6534V73H46.4534V67.04H44.1534V65.91H49.9634V67.04ZM52.223 67.57C51.7564 68.0167 51.523 68.6433 51.523 69.45C51.523 70.2567 51.7564 70.8867 52.223 71.34C52.6897 71.7867 53.2464 72.01 53.893 72.01C54.5397 72.01 55.0964 71.7867 55.563 71.34C56.0364 70.8867 56.273 70.2567 56.273 69.45C56.273 68.6433 56.0364 68.0167 55.563 67.57C55.0964 67.1167 54.5397 66.89 53.893 66.89C53.2464 66.89 52.6897 67.1167 52.223 67.57ZM50.803 71.43C50.463 70.8567 50.293 70.1967 50.293 69.45C50.293 68.7033 50.463 68.0467 50.803 67.48C51.1497 66.9067 51.593 66.4767 52.133 66.19C52.673 65.9033 53.2597 65.76 53.893 65.76C54.5264 65.76 55.113 65.9033 55.653 66.19C56.193 66.4767 56.6364 66.9067 56.983 67.48C57.3297 68.0467 57.503 68.7033 57.503 69.45C57.503 70.1967 57.3297 70.8567 56.983 71.43C56.6364 72.0033 56.193 72.4333 55.653 72.72C55.113 73.0067 54.5264 73.15 53.893 73.15C53.2597 73.15 52.673 73.0067 52.133 72.72C51.593 72.4333 51.1497 72.0033 50.803 71.43ZM64.4004 73.15C63.4071 73.15 62.5604 72.8133 61.8604 72.14C61.1671 71.4667 60.8204 70.5733 60.8204 69.46C60.8204 68.3533 61.1737 67.46 61.8804 66.78C62.5871 66.1 63.4237 65.76 64.3904 65.76C65.2437 65.76 65.9437 65.9767 66.4904 66.41C67.0437 66.8433 67.4071 67.3933 67.5804 68.06L66.4504 68.44C66.3371 67.98 66.1071 67.6067 65.7604 67.32C65.4137 67.0333 64.9571 66.89 64.3904 66.89C63.7571 66.89 63.2071 67.1167 62.7404 67.57C62.2804 68.0167 62.0504 68.6467 62.0504 69.46C62.0504 70.2533 62.2804 70.8767 62.7404 71.33C63.2004 71.7767 63.7537 72 64.4004 72C64.9537 72 65.4104 71.85 65.7704 71.55C66.1304 71.25 66.3771 70.88 66.5104 70.44L67.6104 70.8C67.4371 71.46 67.0704 72.0167 66.5104 72.47C65.9571 72.9233 65.2537 73.15 64.4004 73.15ZM73.4246 73L72.7546 71.22H69.7546L69.0946 73H67.8246L70.5846 65.91H71.9746L74.7346 73H73.4246ZM71.2546 67.21L70.1746 70.11H72.3346L71.2546 67.21ZM79.264 73L77.774 70.2H76.894V73H75.684V65.91H78.404C79.0707 65.91 79.6073 66.1167 80.014 66.53C80.4207 66.9367 80.624 67.4467 80.624 68.06C80.624 68.5667 80.4807 69 80.194 69.36C79.9073 69.72 79.5173 69.96 79.024 70.08L80.624 73H79.264ZM76.894 69.14H78.184C78.5507 69.14 78.844 69.0433 79.064 68.85C79.2907 68.65 79.404 68.3867 79.404 68.06C79.404 67.7267 79.2907 67.4633 79.064 67.27C78.844 67.07 78.5507 66.97 78.184 66.97H76.894V69.14ZM86.9947 67.04H84.6847V73H83.4847V67.04H81.1847V65.91H86.9947V67.04Z" fill="#696969"/>
<path d="M4.1 37H1.7V22.82H10.52V25.08H4.1V29.06H9.86V31.28H4.1V37ZM15.0114 37H12.6914V22.52H15.0114V37ZM17.3648 34.36C17.3648 33.5333 17.6315 32.8733 18.1648 32.38C18.7115 31.8733 19.4248 31.5533 20.3048 31.42L22.8048 31.04C23.2848 30.9733 23.5248 30.74 23.5248 30.34C23.5248 29.9 23.3715 29.5467 23.0648 29.28C22.7582 29 22.2982 28.86 21.6848 28.86C21.0982 28.86 20.6315 29.0267 20.2848 29.36C19.9382 29.68 19.7382 30.1 19.6848 30.62L17.5648 30.14C17.6582 29.26 18.0782 28.5133 18.8248 27.9C19.5715 27.2733 20.5182 26.96 21.6648 26.96C23.0782 26.96 24.1182 27.3 24.7848 27.98C25.4648 28.66 25.8048 29.5333 25.8048 30.6V35.44C25.8048 36.08 25.8448 36.6 25.9248 37H23.7648C23.6982 36.8 23.6648 36.3867 23.6648 35.76C23.0248 36.7867 22.0248 37.3 20.6648 37.3C19.6782 37.3 18.8782 37.0133 18.2648 36.44C17.6648 35.8533 17.3648 35.16 17.3648 34.36ZM21.1048 35.48C21.8248 35.48 22.4048 35.2867 22.8448 34.9C23.2982 34.5 23.5248 33.8533 23.5248 32.96V32.52L20.9848 32.9C20.1182 33.0467 19.6848 33.4867 19.6848 34.22C19.6848 34.5667 19.8115 34.8667 20.0648 35.12C20.3182 35.36 20.6648 35.48 21.1048 35.48ZM30.9094 37H28.6094V27.26H30.8294V28.5C31.096 28.02 31.496 27.6467 32.0294 27.38C32.576 27.1133 33.136 26.98 33.7094 26.98C34.3627 26.98 34.9494 27.1267 35.4694 27.42C35.9894 27.7133 36.376 28.14 36.6294 28.7C37.3094 27.5533 38.3627 26.98 39.7894 26.98C40.7494 26.98 41.5627 27.2933 42.2294 27.92C42.896 28.5467 43.2294 29.4667 43.2294 30.68V37H40.9894V31.06C40.9894 30.46 40.8294 29.98 40.5094 29.62C40.2027 29.2467 39.736 29.06 39.1094 29.06C38.5094 29.06 38.0227 29.2667 37.6494 29.68C37.276 30.0933 37.0894 30.6067 37.0894 31.22V37H34.8094V31.06C34.8094 30.46 34.6494 29.98 34.3294 29.62C34.0227 29.2467 33.556 29.06 32.9294 29.06C32.316 29.06 31.8227 29.2667 31.4494 29.68C31.0894 30.08 30.9094 30.5933 30.9094 31.22V37ZM47.6903 31.06H52.4703C52.4436 30.4467 52.2236 29.9333 51.8103 29.52C51.4103 29.1067 50.8303 28.9 50.0703 28.9C49.377 28.9 48.817 29.12 48.3903 29.56C47.9636 29.9867 47.7303 30.4867 47.6903 31.06ZM52.7303 33.6L54.6903 34.22C54.4103 35.1133 53.8836 35.8533 53.1103 36.44C52.3503 37.0133 51.4103 37.3 50.2903 37.3C48.9036 37.3 47.7236 36.8267 46.7503 35.88C45.7903 34.9333 45.3103 33.6667 45.3103 32.08C45.3103 30.5867 45.777 29.36 46.7103 28.4C47.657 27.44 48.7703 26.96 50.0503 26.96C51.5436 26.96 52.7103 27.42 53.5503 28.34C54.3903 29.2467 54.8103 30.4733 54.8103 32.02C54.8103 32.4333 54.7903 32.68 54.7503 32.76H47.6303C47.657 33.4933 47.9236 34.1 48.4303 34.58C48.9503 35.06 49.5703 35.3 50.2903 35.3C51.5436 35.3 52.357 34.7333 52.7303 33.6ZM62.0673 32.18H56.4273V30.12H62.0673V32.18ZM66.7288 37H64.4688V22.52H66.7488V28.46C66.9888 28.0467 67.3821 27.7 67.9288 27.42C68.4754 27.14 69.1021 27 69.8088 27C71.2221 27 72.3221 27.48 73.1088 28.44C73.9088 29.3867 74.3088 30.6 74.3088 32.08C74.3088 33.5867 73.8888 34.8267 73.0488 35.8C72.2221 36.76 71.1154 37.24 69.7288 37.24C68.3421 37.24 67.3421 36.7267 66.7288 35.7V37ZM71.2288 34.36C71.7221 33.8 71.9688 33.0467 71.9688 32.1C71.9688 31.1533 71.7288 30.4133 71.2488 29.88C70.7688 29.3333 70.1354 29.06 69.3488 29.06C68.5888 29.06 67.9621 29.3333 67.4688 29.88C66.9754 30.4133 66.7288 31.1533 66.7288 32.1C66.7288 33.0333 66.9754 33.78 67.4688 34.34C67.9621 34.9 68.5888 35.18 69.3488 35.18C70.1221 35.18 70.7488 34.9067 71.2288 34.36ZM78.8791 34.4C79.4124 34.9467 80.0591 35.22 80.8191 35.22C81.5791 35.22 82.2191 34.9467 82.7391 34.4C83.2724 33.8533 83.5391 33.0933 83.5391 32.12C83.5391 31.16 83.2724 30.4133 82.7391 29.88C82.2191 29.3333 81.5791 29.06 80.8191 29.06C80.0591 29.06 79.4124 29.3333 78.8791 29.88C78.3591 30.4133 78.0991 31.16 78.0991 32.12C78.0991 33.08 78.3591 33.84 78.8791 34.4ZM80.8191 26.96C82.2857 26.96 83.4924 27.4467 84.4391 28.42C85.3991 29.3933 85.8791 30.6267 85.8791 32.12C85.8791 33.6133 85.3991 34.8533 84.4391 35.84C83.4924 36.8133 82.2857 37.3 80.8191 37.3C79.3657 37.3 78.1591 36.8133 77.1991 35.84C76.2524 34.8533 75.7791 33.6133 75.7791 32.12C75.7791 30.6267 76.2524 29.3933 77.1991 28.42C78.1591 27.4467 79.3657 26.96 80.8191 26.96ZM90.4211 37H88.1211V27.26H90.4211V37ZM88.2011 24.9C87.9078 24.6067 87.7611 24.2533 87.7611 23.84C87.7611 23.4267 87.9078 23.0733 88.2011 22.78C88.4944 22.4733 88.8478 22.32 89.2611 22.32C89.6878 22.32 90.0478 22.4667 90.3411 22.76C90.6344 23.0533 90.7811 23.4133 90.7811 23.84C90.7811 24.2533 90.6344 24.6067 90.3411 24.9C90.0478 25.1933 89.6878 25.34 89.2611 25.34C88.8478 25.34 88.4944 25.1933 88.2011 24.9ZM95.7341 37H93.4141V22.52H95.7341V37ZM100.347 31.06H105.127C105.1 30.4467 104.88 29.9333 104.467 29.52C104.067 29.1067 103.487 28.9 102.727 28.9C102.033 28.9 101.473 29.12 101.047 29.56C100.62 29.9867 100.387 30.4867 100.347 31.06ZM105.387 33.6L107.347 34.22C107.067 35.1133 106.54 35.8533 105.767 36.44C105.007 37.0133 104.067 37.3 102.947 37.3C101.56 37.3 100.38 36.8267 99.4066 35.88C98.4466 34.9333 97.9666 33.6667 97.9666 32.08C97.9666 30.5867 98.4332 29.36 99.3666 28.4C100.313 27.44 101.427 26.96 102.707 26.96C104.2 26.96 105.367 27.42 106.207 28.34C107.047 29.2467 107.467 30.4733 107.467 32.02C107.467 32.4333 107.447 32.68 107.407 32.76H100.287C100.313 33.4933 100.58 34.1 101.087 34.58C101.607 35.06 102.227 35.3 102.947 35.3C104.2 35.3 105.013 34.7333 105.387 33.6ZM111.244 32.1C111.244 33.0333 111.484 33.7867 111.964 34.36C112.444 34.92 113.077 35.2 113.864 35.2C114.624 35.2 115.244 34.9133 115.724 34.34C116.204 33.7667 116.444 33.0133 116.444 32.08C116.444 31.16 116.21 30.4267 115.744 29.88C115.277 29.3333 114.657 29.06 113.884 29.06C113.11 29.06 112.477 29.34 111.984 29.9C111.49 30.4467 111.244 31.18 111.244 32.1ZM118.684 22.52V35.22C118.684 35.8733 118.717 36.4667 118.784 37H116.564C116.497 36.6267 116.464 36.2067 116.464 35.74C116.224 36.18 115.85 36.54 115.344 36.82C114.837 37.1 114.257 37.24 113.604 37.24C112.217 37.24 111.09 36.7533 110.224 35.78C109.357 34.8067 108.924 33.58 108.924 32.1C108.924 30.6733 109.357 29.4667 110.224 28.48C111.104 27.4933 112.217 27 113.564 27C114.337 27 114.957 27.14 115.424 27.42C115.904 27.7 116.237 28.0267 116.424 28.4V22.52H118.684ZM128.236 32.1C128.236 33.0333 128.476 33.7867 128.956 34.36C129.436 34.92 130.069 35.2 130.856 35.2C131.616 35.2 132.236 34.9133 132.716 34.34C133.196 33.7667 133.436 33.0133 133.436 32.08C133.436 31.16 133.202 30.4267 132.736 29.88C132.269 29.3333 131.649 29.06 130.876 29.06C130.102 29.06 129.469 29.34 128.976 29.9C128.482 30.4467 128.236 31.18 128.236 32.1ZM135.676 22.52V35.22C135.676 35.8733 135.709 36.4667 135.776 37H133.556C133.489 36.6267 133.456 36.2067 133.456 35.74C133.216 36.18 132.842 36.54 132.336 36.82C131.829 37.1 131.249 37.24 130.596 37.24C129.209 37.24 128.082 36.7533 127.216 35.78C126.349 34.8067 125.916 33.58 125.916 32.1C125.916 30.6733 126.349 29.4667 127.216 28.48C128.096 27.4933 129.209 27 130.556 27C131.329 27 131.949 27.14 132.416 27.42C132.896 27.7 133.229 28.0267 133.416 28.4V22.52H135.676ZM141.007 37H138.707V27.26H141.007V37ZM138.787 24.9C138.494 24.6067 138.347 24.2533 138.347 23.84C138.347 23.4267 138.494 23.0733 138.787 22.78C139.08 22.4733 139.434 22.32 139.847 22.32C140.274 22.32 140.634 22.4667 140.927 22.76C141.22 23.0533 141.367 23.4133 141.367 23.84C141.367 24.2533 141.22 24.6067 140.927 24.9C140.634 25.1933 140.274 25.34 139.847 25.34C139.434 25.34 139.08 25.1933 138.787 24.9ZM143.14 34.36L145.16 33.8C145.2 34.2667 145.393 34.66 145.74 34.98C146.087 35.3 146.553 35.46 147.14 35.46C147.593 35.46 147.947 35.3533 148.2 35.14C148.467 34.9267 148.6 34.66 148.6 34.34C148.6 33.78 148.22 33.42 147.46 33.26L146.02 32.94C145.18 32.7533 144.533 32.4067 144.08 31.9C143.627 31.3933 143.4 30.7933 143.4 30.1C143.4 29.2467 143.747 28.5133 144.44 27.9C145.133 27.2733 145.98 26.96 146.98 26.96C147.62 26.96 148.187 27.0533 148.68 27.24C149.173 27.4267 149.553 27.6733 149.82 27.98C150.1 28.2733 150.313 28.56 150.46 28.84C150.607 29.12 150.7 29.4 150.74 29.68L148.78 30.24C148.727 29.8667 148.553 29.5333 148.26 29.24C147.98 28.9333 147.553 28.78 146.98 28.78C146.58 28.78 146.247 28.8933 145.98 29.12C145.713 29.3333 145.58 29.5933 145.58 29.9C145.58 30.4467 145.907 30.7867 146.56 30.92L148.04 31.22C148.947 31.42 149.64 31.78 150.12 32.3C150.6 32.82 150.84 33.4467 150.84 34.18C150.84 34.9933 150.513 35.72 149.86 36.36C149.22 36.9867 148.32 37.3 147.16 37.3C146.493 37.3 145.893 37.2 145.36 37C144.84 36.8 144.427 36.5467 144.12 36.24C143.827 35.92 143.593 35.6067 143.42 35.3C143.26 34.98 143.167 34.6667 143.14 34.36ZM155.461 31.28V37H153.141V22.52H155.461V28.2C156.087 27.3867 157.014 26.98 158.241 26.98C159.387 26.98 160.267 27.34 160.881 28.06C161.494 28.78 161.801 29.7067 161.801 30.84V37H159.481V31.24C159.481 30.5867 159.321 30.0667 159.001 29.68C158.681 29.28 158.174 29.08 157.481 29.08C156.867 29.08 156.381 29.2867 156.021 29.7C155.674 30.1133 155.487 30.64 155.461 31.28Z" fill="#2E2E2E"/>
<path d="M283.318 72.692L283.84 69.722C284.326 69.938 284.668 70.352 284.938 70.874L287.134 69.74C286.612 68.462 285.604 67.598 284.29 67.274L284.578 65.6H283.354L283.084 67.148C281.194 67.166 279.142 68.228 278.728 70.55C278.296 72.962 280.024 73.916 281.752 74.654L281.194 77.804C280.222 77.624 279.646 77.03 279.376 76.202L277.126 77.354C277.576 78.902 278.854 79.964 280.78 80.198L280.492 81.8H281.716L281.986 80.234C284.218 80.126 286 78.992 286.396 76.814C286.864 74.186 284.884 73.394 283.318 72.692ZM281.248 70.748C281.374 70.064 281.95 69.65 282.652 69.56L282.202 72.152C281.536 71.81 281.14 71.414 281.248 70.748ZM283.858 76.544C283.732 77.138 283.228 77.642 282.418 77.804L282.886 75.14C283.57 75.482 283.984 75.86 283.858 76.544ZM296.522 67.4L292.994 68.57L293.228 70.784L295.712 70.118L293.984 80H296.468L298.682 67.4H296.522ZM304.851 67.148C302.133 67.148 300.135 68.786 299.685 71.36C299.253 73.808 300.855 75.698 303.195 75.878L299.685 80H302.673L307.479 74.33C308.127 73.646 308.577 72.746 308.775 71.702C309.207 69.128 307.551 67.148 304.851 67.148ZM302.169 71.522C302.385 70.262 303.411 69.488 304.581 69.488C305.769 69.488 306.525 70.244 306.291 71.522C306.075 72.8 305.049 73.574 303.861 73.574C302.691 73.574 301.935 72.8 302.169 71.522ZM307.552 80.234C308.488 80.234 309.208 79.568 309.352 78.74C309.514 77.894 308.938 77.174 308.092 77.174C307.192 77.174 306.454 77.822 306.31 78.668C306.166 79.514 306.706 80.234 307.552 80.234ZM315.837 67.148C313.119 67.148 311.121 68.786 310.671 71.36C310.239 73.808 311.841 75.698 314.181 75.878L310.671 80H313.659L318.465 74.33C319.113 73.646 319.563 72.746 319.761 71.702C320.193 69.128 318.537 67.148 315.837 67.148ZM313.155 71.522C313.371 70.262 314.397 69.488 315.567 69.488C316.755 69.488 317.511 70.244 317.277 71.522C317.061 72.8 316.035 73.574 314.847 73.574C313.677 73.574 312.921 72.8 313.155 71.522ZM325.786 67.148C323.068 67.148 321.07 68.786 320.62 71.36C320.188 73.808 321.79 75.698 324.13 75.878L320.62 80H323.608L328.414 74.33C329.062 73.646 329.512 72.746 329.71 71.702C330.142 69.128 328.486 67.148 325.786 67.148ZM323.104 71.522C323.32 70.262 324.346 69.488 325.516 69.488C326.704 69.488 327.46 70.244 327.226 71.522C327.01 72.8 325.984 73.574 324.796 73.574C323.626 73.574 322.87 72.8 323.104 71.522Z" fill="#FF9401"/>
<path d="M314.768 31.176C315.536 30.68 316.048 29.88 316.048 28.808C316.048 26.648 314.352 25.592 312.496 25.592C310.624 25.592 308.944 26.648 308.944 28.808C308.944 29.88 309.456 30.68 310.208 31.176C309.184 31.752 308.56 32.728 308.56 33.896C308.56 35.976 310.16 37.208 312.496 37.208C314.832 37.208 316.416 35.976 316.416 33.896C316.416 32.712 315.808 31.752 314.768 31.176ZM312.496 27.336C313.424 27.336 314.208 27.848 314.208 28.888C314.208 29.88 313.424 30.44 312.496 30.44C311.552 30.44 310.784 29.88 310.784 28.888C310.784 27.848 311.552 27.336 312.496 27.336ZM312.496 35.464C311.28 35.464 310.4 34.856 310.4 33.72C310.4 32.568 311.28 31.976 312.496 31.976C313.696 31.976 314.576 32.568 314.576 33.72C314.576 34.856 313.696 35.464 312.496 35.464ZM319.017 37.192C319.673 37.192 320.217 36.648 320.217 35.992C320.217 35.32 319.673 34.792 319.017 34.792C318.345 34.792 317.817 35.32 317.817 35.992C317.817 36.648 318.345 37.192 319.017 37.192ZM325.447 30.024H324.039L324.231 27.528H328.775V25.8H322.535L322.103 31.816H325.367C326.583 31.816 327.415 32.488 327.415 33.608C327.415 34.728 326.583 35.416 325.335 35.416C324.167 35.416 323.399 34.888 323.111 33.896L321.527 34.808C322.119 36.424 323.639 37.208 325.335 37.208C327.399 37.208 329.255 35.96 329.255 33.608C329.255 31.272 327.479 30.024 325.447 30.024Z" fill="#818181"/>
<path d="M298.5 26L299.735 29.8004H303.731L300.498 32.1492L301.733 35.9496L298.5 33.6008L295.267 35.9496L296.502 32.1492L293.269 29.8004H297.265L298.5 26Z" fill="#818181"/>
</svg>
