<svg width="332" height="104" viewBox="0 0 332 104" fill="none" xmlns="http://www.w3.org/2000/svg">
<rect x="2" y="58" width="100" height="22" rx="11" fill="#C4C4C4" fill-opacity="0.26"/>
<path d="M25.7 73L25.03 71.22H22.03L21.37 73H20.1L22.86 65.91H24.25L27.01 73H25.7ZM23.53 67.21L22.45 70.11H24.61L23.53 67.21ZM29.1594 71.9H30.4194C31.0727 71.9 31.6094 71.6933 32.0294 71.28C32.456 70.86 32.6694 70.2567 32.6694 69.47C32.6694 68.6767 32.4594 68.07 32.0394 67.65C31.6194 67.2233 31.0827 67.01 30.4294 67.01H29.1594V71.9ZM30.4594 73H27.9594V65.91H30.4694C31.4694 65.91 32.2927 66.2267 32.9394 66.86C33.5927 67.4933 33.9194 68.3633 33.9194 69.47C33.9194 70.57 33.5927 71.4333 32.9394 72.06C32.286 72.6867 31.4594 73 30.4594 73ZM36.3762 71.9H37.6362C38.2895 71.9 38.8262 71.6933 39.2462 71.28C39.6728 70.86 39.8862 70.2567 39.8862 69.47C39.8862 68.6767 39.6762 68.07 39.2562 67.65C38.8362 67.2233 38.2995 67.01 37.6462 67.01H36.3762V71.9ZM37.6762 73H35.1762V65.91H37.6862C38.6862 65.91 39.5095 66.2267 40.1562 66.86C40.8095 67.4933 41.1362 68.3633 41.1362 69.47C41.1362 70.57 40.8095 71.4333 40.1562 72.06C39.5028 72.6867 38.6762 73 37.6762 73ZM49.9634 67.04H47.6534V73H46.4534V67.04H44.1534V65.91H49.9634V67.04ZM52.223 67.57C51.7564 68.0167 51.523 68.6433 51.523 69.45C51.523 70.2567 51.7564 70.8867 52.223 71.34C52.6897 71.7867 53.2464 72.01 53.893 72.01C54.5397 72.01 55.0964 71.7867 55.563 71.34C56.0364 70.8867 56.273 70.2567 56.273 69.45C56.273 68.6433 56.0364 68.0167 55.563 67.57C55.0964 67.1167 54.5397 66.89 53.893 66.89C53.2464 66.89 52.6897 67.1167 52.223 67.57ZM50.803 71.43C50.463 70.8567 50.293 70.1967 50.293 69.45C50.293 68.7033 50.463 68.0467 50.803 67.48C51.1497 66.9067 51.593 66.4767 52.133 66.19C52.673 65.9033 53.2597 65.76 53.893 65.76C54.5264 65.76 55.113 65.9033 55.653 66.19C56.193 66.4767 56.6364 66.9067 56.983 67.48C57.3297 68.0467 57.503 68.7033 57.503 69.45C57.503 70.1967 57.3297 70.8567 56.983 71.43C56.6364 72.0033 56.193 72.4333 55.653 72.72C55.113 73.0067 54.5264 73.15 53.893 73.15C53.2597 73.15 52.673 73.0067 52.133 72.72C51.593 72.4333 51.1497 72.0033 50.803 71.43ZM64.4004 73.15C63.4071 73.15 62.5604 72.8133 61.8604 72.14C61.1671 71.4667 60.8204 70.5733 60.8204 69.46C60.8204 68.3533 61.1737 67.46 61.8804 66.78C62.5871 66.1 63.4237 65.76 64.3904 65.76C65.2437 65.76 65.9437 65.9767 66.4904 66.41C67.0437 66.8433 67.4071 67.3933 67.5804 68.06L66.4504 68.44C66.3371 67.98 66.1071 67.6067 65.7604 67.32C65.4137 67.0333 64.9571 66.89 64.3904 66.89C63.7571 66.89 63.2071 67.1167 62.7404 67.57C62.2804 68.0167 62.0504 68.6467 62.0504 69.46C62.0504 70.2533 62.2804 70.8767 62.7404 71.33C63.2004 71.7767 63.7537 72 64.4004 72C64.9537 72 65.4104 71.85 65.7704 71.55C66.1304 71.25 66.3771 70.88 66.5104 70.44L67.6104 70.8C67.4371 71.46 67.0704 72.0167 66.5104 72.47C65.9571 72.9233 65.2537 73.15 64.4004 73.15ZM73.4246 73L72.7546 71.22H69.7546L69.0946 73H67.8246L70.5846 65.91H71.9746L74.7346 73H73.4246ZM71.2546 67.21L70.1746 70.11H72.3346L71.2546 67.21ZM79.264 73L77.774 70.2H76.894V73H75.684V65.91H78.404C79.0707 65.91 79.6073 66.1167 80.014 66.53C80.4207 66.9367 80.624 67.4467 80.624 68.06C80.624 68.5667 80.4807 69 80.194 69.36C79.9073 69.72 79.5173 69.96 79.024 70.08L80.624 73H79.264ZM76.894 69.14H78.184C78.5507 69.14 78.844 69.0433 79.064 68.85C79.2907 68.65 79.404 68.3867 79.404 68.06C79.404 67.7267 79.2907 67.4633 79.064 67.27C78.844 67.07 78.5507 66.97 78.184 66.97H76.894V69.14ZM86.9947 67.04H84.6847V73H83.4847V67.04H81.1847V65.91H86.9947V67.04Z" fill="#696969"/>
<path d="M279.318 72.692L279.84 69.722C280.326 69.938 280.668 70.352 280.938 70.874L283.134 69.74C282.612 68.462 281.604 67.598 280.29 67.274L280.578 65.6H279.354L279.084 67.148C277.194 67.166 275.142 68.228 274.728 70.55C274.296 72.962 276.024 73.916 277.752 74.654L277.194 77.804C276.222 77.624 275.646 77.03 275.376 76.202L273.126 77.354C273.576 78.902 274.854 79.964 276.78 80.198L276.492 81.8H277.716L277.986 80.234C280.218 80.126 282 78.992 282.396 76.814C282.864 74.186 280.884 73.394 279.318 72.692ZM277.248 70.748C277.374 70.064 277.95 69.65 278.652 69.56L278.202 72.152C277.536 71.81 277.14 71.414 277.248 70.748ZM279.858 76.544C279.732 77.138 279.228 77.642 278.418 77.804L278.886 75.14C279.57 75.482 279.984 75.86 279.858 76.544ZM287.266 80H295.708L296.122 77.606H291.55L294.448 75.14C295.852 73.934 296.788 72.818 297.058 71.288C297.508 68.768 295.672 67.148 293.584 67.148C291.784 67.148 290.11 68.012 288.976 69.812L290.956 71.09C291.55 70.154 292.36 69.56 293.26 69.56C294.16 69.56 294.754 70.19 294.574 71.198C294.412 72.044 293.656 72.872 292.684 73.718L287.59 78.146L287.266 80ZM301.963 80.252C305.149 80.252 307.309 77.75 307.993 73.862C308.677 69.974 307.219 67.148 303.997 67.148C300.793 67.148 298.633 69.632 297.949 73.52C297.265 77.408 298.723 80.252 301.963 80.252ZM302.251 77.822C300.559 77.822 299.947 76.364 300.433 73.7C300.901 71.036 302.017 69.56 303.691 69.56C305.383 69.56 305.995 71.036 305.509 73.7C305.041 76.364 303.925 77.822 302.251 77.822ZM309.353 80.234C310.289 80.234 311.009 79.568 311.153 78.74C311.315 77.894 310.739 77.174 309.893 77.174C308.993 77.174 308.255 77.822 308.111 78.668C307.967 79.514 308.507 80.234 309.353 80.234ZM317.638 67.148C314.92 67.148 312.922 68.786 312.472 71.36C312.04 73.808 313.642 75.698 315.982 75.878L312.472 80H315.46L320.266 74.33C320.914 73.646 321.364 72.746 321.562 71.702C321.994 69.128 320.338 67.148 317.638 67.148ZM314.956 71.522C315.172 70.262 316.198 69.488 317.368 69.488C318.556 69.488 319.312 70.244 319.078 71.522C318.862 72.8 317.836 73.574 316.648 73.574C315.478 73.574 314.722 72.8 314.956 71.522ZM327.587 67.148C324.869 67.148 322.871 68.786 322.421 71.36C321.989 73.808 323.591 75.698 325.931 75.878L322.421 80H325.409L330.215 74.33C330.863 73.646 331.313 72.746 331.511 71.702C331.943 69.128 330.287 67.148 327.587 67.148ZM324.905 71.522C325.121 70.262 326.147 69.488 327.317 69.488C328.505 69.488 329.261 70.244 329.027 71.522C328.811 72.8 327.785 73.574 326.597 73.574C325.427 73.574 324.671 72.8 324.905 71.522Z" fill="#FF9401"/>
<path d="M4.1 29.34H6.6C7.36 29.34 7.95333 29.1467 8.38 28.76C8.82 28.36 9.04 27.8267 9.04 27.16C9.04 26.48 8.82 25.94 8.38 25.54C7.95333 25.14 7.36 24.94 6.6 24.94H4.1V29.34ZM6.96 31.46H4.1V37H1.7V22.82H6.96C8.30667 22.82 9.39333 23.2267 10.22 24.04C11.06 24.8533 11.48 25.8867 11.48 27.14C11.48 28.4067 11.06 29.4467 10.22 30.26C9.39333 31.06 8.30667 31.46 6.96 31.46ZM14.4481 31.06H19.2281C19.2015 30.4467 18.9815 29.9333 18.5681 29.52C18.1681 29.1067 17.5881 28.9 16.8281 28.9C16.1348 28.9 15.5748 29.12 15.1481 29.56C14.7215 29.9867 14.4881 30.4867 14.4481 31.06ZM19.4881 33.6L21.4481 34.22C21.1681 35.1133 20.6415 35.8533 19.8681 36.44C19.1081 37.0133 18.1681 37.3 17.0481 37.3C15.6615 37.3 14.4815 36.8267 13.5081 35.88C12.5481 34.9333 12.0681 33.6667 12.0681 32.08C12.0681 30.5867 12.5348 29.36 13.4681 28.4C14.4148 27.44 15.5281 26.96 16.8081 26.96C18.3015 26.96 19.4681 27.42 20.3081 28.34C21.1481 29.2467 21.5681 30.4733 21.5681 32.02C21.5681 32.4333 21.5481 32.68 21.5081 32.76H14.3881C14.4148 33.4933 14.6815 34.1 15.1881 34.58C15.7081 35.06 16.3281 35.3 17.0481 35.3C18.3015 35.3 19.1148 34.7333 19.4881 33.6ZM23.1852 34.36C23.1852 33.5333 23.4518 32.8733 23.9852 32.38C24.5318 31.8733 25.2452 31.5533 26.1252 31.42L28.6252 31.04C29.1052 30.9733 29.3452 30.74 29.3452 30.34C29.3452 29.9 29.1918 29.5467 28.8852 29.28C28.5785 29 28.1185 28.86 27.5052 28.86C26.9185 28.86 26.4518 29.0267 26.1052 29.36C25.7585 29.68 25.5585 30.1 25.5052 30.62L23.3852 30.14C23.4785 29.26 23.8985 28.5133 24.6452 27.9C25.3918 27.2733 26.3385 26.96 27.4852 26.96C28.8985 26.96 29.9385 27.3 30.6052 27.98C31.2852 28.66 31.6252 29.5333 31.6252 30.6V35.44C31.6252 36.08 31.6652 36.6 31.7452 37H29.5852C29.5185 36.8 29.4852 36.3867 29.4852 35.76C28.8452 36.7867 27.8452 37.3 26.4852 37.3C25.4985 37.3 24.6985 37.0133 24.0852 36.44C23.4852 35.8533 23.1852 35.16 23.1852 34.36ZM26.9252 35.48C27.6452 35.48 28.2252 35.2867 28.6652 34.9C29.1185 34.5 29.3452 33.8533 29.3452 32.96V32.52L26.8052 32.9C25.9385 33.0467 25.5052 33.4867 25.5052 34.22C25.5052 34.5667 25.6318 34.8667 25.8852 35.12C26.1385 35.36 26.4852 35.48 26.9252 35.48ZM38.6502 29.1C37.9035 29.1 37.2702 29.3733 36.7502 29.92C36.2302 30.4533 35.9702 31.1867 35.9702 32.12C35.9702 33.0667 36.2302 33.8133 36.7502 34.36C37.2835 34.9067 37.9302 35.18 38.6902 35.18C39.3702 35.18 39.9102 35 40.3102 34.64C40.7235 34.2667 40.9968 33.8467 41.1302 33.38L43.1702 34.12C42.9035 34.9867 42.3835 35.7333 41.6102 36.36C40.8502 36.9867 39.8768 37.3 38.6902 37.3C37.2635 37.3 36.0635 36.8067 35.0902 35.82C34.1302 34.8333 33.6502 33.6 33.6502 32.12C33.6502 30.6267 34.1235 29.3933 35.0702 28.42C36.0302 27.4467 37.2168 26.96 38.6302 26.96C39.8435 26.96 40.8302 27.2733 41.5902 27.9C42.3635 28.5267 42.8635 29.28 43.0902 30.16L41.0102 30.92C40.8768 30.4133 40.6168 29.9867 40.2302 29.64C39.8568 29.28 39.3302 29.1 38.6502 29.1ZM47.5505 31.28V37H45.2305V22.52H47.5505V28.2C48.1771 27.3867 49.1038 26.98 50.3305 26.98C51.4771 26.98 52.3571 27.34 52.9705 28.06C53.5838 28.78 53.8905 29.7067 53.8905 30.84V37H51.5705V31.24C51.5705 30.5867 51.4105 30.0667 51.0905 29.68C50.7705 29.28 50.2638 29.08 49.5705 29.08C48.9571 29.08 48.4705 29.2867 48.1105 29.7C47.7638 30.1133 47.5771 30.64 47.5505 31.28ZM77.4758 37H75.0958V26.56L70.6758 37H68.5958L64.2158 26.6V37H61.8758V22.82H65.0758L69.6758 33.64L74.2158 22.82H77.4758V37ZM82.2606 31.06H87.0406C87.014 30.4467 86.794 29.9333 86.3806 29.52C85.9806 29.1067 85.4006 28.9 84.6406 28.9C83.9473 28.9 83.3873 29.12 82.9606 29.56C82.534 29.9867 82.3006 30.4867 82.2606 31.06ZM87.3006 33.6L89.2606 34.22C88.9806 35.1133 88.454 35.8533 87.6806 36.44C86.9206 37.0133 85.9806 37.3 84.8606 37.3C83.474 37.3 82.294 36.8267 81.3206 35.88C80.3606 34.9333 79.8806 33.6667 79.8806 32.08C79.8806 30.5867 80.3473 29.36 81.2806 28.4C82.2273 27.44 83.3406 26.96 84.6206 26.96C86.114 26.96 87.2806 27.42 88.1206 28.34C88.9606 29.2467 89.3806 30.4733 89.3806 32.02C89.3806 32.4333 89.3606 32.68 89.3206 32.76H82.2006C82.2273 33.4933 82.494 34.1 83.0006 34.58C83.5206 35.06 84.1406 35.3 84.8606 35.3C86.114 35.3 86.9273 34.7333 87.3006 33.6ZM93.9177 37H91.5977V22.52H93.9177V37ZM99.1702 37H96.9102V22.52H99.1902V28.46C99.4302 28.0467 99.8235 27.7 100.37 27.42C100.917 27.14 101.543 27 102.25 27C103.663 27 104.763 27.48 105.55 28.44C106.35 29.3867 106.75 30.6 106.75 32.08C106.75 33.5867 106.33 34.8267 105.49 35.8C104.663 36.76 103.557 37.24 102.17 37.24C100.783 37.24 99.7835 36.7267 99.1702 35.7V37ZM103.67 34.36C104.163 33.8 104.41 33.0467 104.41 32.1C104.41 31.1533 104.17 30.4133 103.69 29.88C103.21 29.3333 102.577 29.06 101.79 29.06C101.03 29.06 100.403 29.3333 99.9102 29.88C99.4168 30.4133 99.1702 31.1533 99.1702 32.1C99.1702 33.0333 99.4168 33.78 99.9102 34.34C100.403 34.9 101.03 35.18 101.79 35.18C102.563 35.18 103.19 34.9067 103.67 34.36ZM108.38 34.36C108.38 33.5333 108.647 32.8733 109.18 32.38C109.727 31.8733 110.44 31.5533 111.32 31.42L113.82 31.04C114.3 30.9733 114.54 30.74 114.54 30.34C114.54 29.9 114.387 29.5467 114.08 29.28C113.774 29 113.314 28.86 112.7 28.86C112.114 28.86 111.647 29.0267 111.3 29.36C110.954 29.68 110.754 30.1 110.7 30.62L108.58 30.14C108.674 29.26 109.094 28.5133 109.84 27.9C110.587 27.2733 111.534 26.96 112.68 26.96C114.094 26.96 115.134 27.3 115.8 27.98C116.48 28.66 116.82 29.5333 116.82 30.6V35.44C116.82 36.08 116.86 36.6 116.94 37H114.78C114.714 36.8 114.68 36.3867 114.68 35.76C114.04 36.7867 113.04 37.3 111.68 37.3C110.694 37.3 109.894 37.0133 109.28 36.44C108.68 35.8533 108.38 35.16 108.38 34.36ZM112.12 35.48C112.84 35.48 113.42 35.2867 113.86 34.9C114.314 34.5 114.54 33.8533 114.54 32.96V32.52L112 32.9C111.134 33.0467 110.7 33.4867 110.7 34.22C110.7 34.5667 110.827 34.8667 111.08 35.12C111.334 35.36 111.68 35.48 112.12 35.48ZM126.146 32.1C126.146 33.0333 126.386 33.7867 126.866 34.36C127.346 34.92 127.979 35.2 128.766 35.2C129.526 35.2 130.146 34.9133 130.626 34.34C131.106 33.7667 131.346 33.0133 131.346 32.08C131.346 31.16 131.113 30.4267 130.646 29.88C130.179 29.3333 129.559 29.06 128.786 29.06C128.013 29.06 127.379 29.34 126.886 29.9C126.393 30.4467 126.146 31.18 126.146 32.1ZM133.586 22.52V35.22C133.586 35.8733 133.619 36.4667 133.686 37H131.466C131.399 36.6267 131.366 36.2067 131.366 35.74C131.126 36.18 130.753 36.54 130.246 36.82C129.739 37.1 129.159 37.24 128.506 37.24C127.119 37.24 125.993 36.7533 125.126 35.78C124.259 34.8067 123.826 33.58 123.826 32.1C123.826 30.6733 124.259 29.4667 125.126 28.48C126.006 27.4933 127.119 27 128.466 27C129.239 27 129.859 27.14 130.326 27.42C130.806 27.7 131.139 28.0267 131.326 28.4V22.52H133.586ZM138.917 37H136.617V27.26H138.917V37ZM136.697 24.9C136.404 24.6067 136.257 24.2533 136.257 23.84C136.257 23.4267 136.404 23.0733 136.697 22.78C136.991 22.4733 137.344 22.32 137.757 22.32C138.184 22.32 138.544 22.4667 138.837 22.76C139.131 23.0533 139.277 23.4133 139.277 23.84C139.277 24.2533 139.131 24.6067 138.837 24.9C138.544 25.1933 138.184 25.34 137.757 25.34C137.344 25.34 136.991 25.1933 136.697 24.9ZM141.05 34.36L143.07 33.8C143.11 34.2667 143.303 34.66 143.65 34.98C143.997 35.3 144.463 35.46 145.05 35.46C145.503 35.46 145.857 35.3533 146.11 35.14C146.377 34.9267 146.51 34.66 146.51 34.34C146.51 33.78 146.13 33.42 145.37 33.26L143.93 32.94C143.09 32.7533 142.443 32.4067 141.99 31.9C141.537 31.3933 141.31 30.7933 141.31 30.1C141.31 29.2467 141.657 28.5133 142.35 27.9C143.043 27.2733 143.89 26.96 144.89 26.96C145.53 26.96 146.097 27.0533 146.59 27.24C147.083 27.4267 147.463 27.6733 147.73 27.98C148.01 28.2733 148.223 28.56 148.37 28.84C148.517 29.12 148.61 29.4 148.65 29.68L146.69 30.24C146.637 29.8667 146.463 29.5333 146.17 29.24C145.89 28.9333 145.463 28.78 144.89 28.78C144.49 28.78 144.157 28.8933 143.89 29.12C143.623 29.3333 143.49 29.5933 143.49 29.9C143.49 30.4467 143.817 30.7867 144.47 30.92L145.95 31.22C146.857 31.42 147.55 31.78 148.03 32.3C148.51 32.82 148.75 33.4467 148.75 34.18C148.75 34.9933 148.423 35.72 147.77 36.36C147.13 36.9867 146.23 37.3 145.07 37.3C144.403 37.3 143.803 37.2 143.27 37C142.75 36.8 142.337 36.5467 142.03 36.24C141.737 35.92 141.503 35.6067 141.33 35.3C141.17 34.98 141.077 34.6667 141.05 34.36ZM153.371 31.28V37H151.051V22.52H153.371V28.2C153.997 27.3867 154.924 26.98 156.151 26.98C157.297 26.98 158.177 27.34 158.791 28.06C159.404 28.78 159.711 29.7067 159.711 30.84V37H157.391V31.24C157.391 30.5867 157.231 30.0667 156.911 29.68C156.591 29.28 156.084 29.08 155.391 29.08C154.777 29.08 154.291 29.2867 153.931 29.7C153.584 30.1133 153.397 30.64 153.371 31.28Z" fill="#2E2E2E"/>
<path d="M320.32 29.416C320.32 27.16 318.688 25.592 316.368 25.592C314.048 25.592 312.4 27.16 312.4 29.416C312.4 31.672 314.048 33.24 316.368 33.24H316.56L314 37H316.112L319.648 31.672C320.08 31.048 320.32 30.28 320.32 29.416ZM314.24 29.416C314.24 28.136 315.152 27.336 316.368 27.336C317.584 27.336 318.48 28.136 318.48 29.416C318.48 30.696 317.584 31.496 316.368 31.496C315.152 31.496 314.24 30.68 314.24 29.416ZM320.532 37.192C321.188 37.192 321.732 36.648 321.732 35.992C321.732 35.32 321.188 34.792 320.532 34.792C319.86 34.792 319.332 35.32 319.332 35.992C319.332 36.648 319.86 37.192 320.532 37.192ZM326.963 30.024H325.555L325.747 27.528H330.291V25.8H324.051L323.618 31.816H326.883C328.099 31.816 328.931 32.488 328.931 33.608C328.931 34.728 328.099 35.416 326.851 35.416C325.683 35.416 324.914 34.888 324.627 33.896L323.043 34.808C323.635 36.424 325.155 37.208 326.851 37.208C328.915 37.208 330.771 35.96 330.771 33.608C330.771 31.272 328.995 30.024 326.963 30.024Z" fill="#818181"/>
<path d="M302.5 26L303.735 29.8004H307.731L304.498 32.1492L305.733 35.9496L302.5 33.6008L299.267 35.9496L300.502 32.1492L297.269 29.8004H301.265L302.5 26Z" fill="#818181"/>
</svg>
