<svg width="332" height="104" viewBox="0 0 332 104" fill="none" xmlns="http://www.w3.org/2000/svg">
<rect x="2" y="58" width="100" height="22" rx="11" fill="#C4C4C4" fill-opacity="0.26"/>
<path d="M25.7 73L25.03 71.22H22.03L21.37 73H20.1L22.86 65.91H24.25L27.01 73H25.7ZM23.53 67.21L22.45 70.11H24.61L23.53 67.21ZM29.1594 71.9H30.4194C31.0727 71.9 31.6094 71.6933 32.0294 71.28C32.456 70.86 32.6694 70.2567 32.6694 69.47C32.6694 68.6767 32.4594 68.07 32.0394 67.65C31.6194 67.2233 31.0827 67.01 30.4294 67.01H29.1594V71.9ZM30.4594 73H27.9594V65.91H30.4694C31.4694 65.91 32.2927 66.2267 32.9394 66.86C33.5927 67.4933 33.9194 68.3633 33.9194 69.47C33.9194 70.57 33.5927 71.4333 32.9394 72.06C32.286 72.6867 31.4594 73 30.4594 73ZM36.3762 71.9H37.6362C38.2895 71.9 38.8262 71.6933 39.2462 71.28C39.6728 70.86 39.8862 70.2567 39.8862 69.47C39.8862 68.6767 39.6762 68.07 39.2562 67.65C38.8362 67.2233 38.2995 67.01 37.6462 67.01H36.3762V71.9ZM37.6762 73H35.1762V65.91H37.6862C38.6862 65.91 39.5095 66.2267 40.1562 66.86C40.8095 67.4933 41.1362 68.3633 41.1362 69.47C41.1362 70.57 40.8095 71.4333 40.1562 72.06C39.5028 72.6867 38.6762 73 37.6762 73ZM49.9634 67.04H47.6534V73H46.4534V67.04H44.1534V65.91H49.9634V67.04ZM52.223 67.57C51.7564 68.0167 51.523 68.6433 51.523 69.45C51.523 70.2567 51.7564 70.8867 52.223 71.34C52.6897 71.7867 53.2464 72.01 53.893 72.01C54.5397 72.01 55.0964 71.7867 55.563 71.34C56.0364 70.8867 56.273 70.2567 56.273 69.45C56.273 68.6433 56.0364 68.0167 55.563 67.57C55.0964 67.1167 54.5397 66.89 53.893 66.89C53.2464 66.89 52.6897 67.1167 52.223 67.57ZM50.803 71.43C50.463 70.8567 50.293 70.1967 50.293 69.45C50.293 68.7033 50.463 68.0467 50.803 67.48C51.1497 66.9067 51.593 66.4767 52.133 66.19C52.673 65.9033 53.2597 65.76 53.893 65.76C54.5264 65.76 55.113 65.9033 55.653 66.19C56.193 66.4767 56.6364 66.9067 56.983 67.48C57.3297 68.0467 57.503 68.7033 57.503 69.45C57.503 70.1967 57.3297 70.8567 56.983 71.43C56.6364 72.0033 56.193 72.4333 55.653 72.72C55.113 73.0067 54.5264 73.15 53.893 73.15C53.2597 73.15 52.673 73.0067 52.133 72.72C51.593 72.4333 51.1497 72.0033 50.803 71.43ZM64.4004 73.15C63.4071 73.15 62.5604 72.8133 61.8604 72.14C61.1671 71.4667 60.8204 70.5733 60.8204 69.46C60.8204 68.3533 61.1737 67.46 61.8804 66.78C62.5871 66.1 63.4237 65.76 64.3904 65.76C65.2437 65.76 65.9437 65.9767 66.4904 66.41C67.0437 66.8433 67.4071 67.3933 67.5804 68.06L66.4504 68.44C66.3371 67.98 66.1071 67.6067 65.7604 67.32C65.4137 67.0333 64.9571 66.89 64.3904 66.89C63.7571 66.89 63.2071 67.1167 62.7404 67.57C62.2804 68.0167 62.0504 68.6467 62.0504 69.46C62.0504 70.2533 62.2804 70.8767 62.7404 71.33C63.2004 71.7767 63.7537 72 64.4004 72C64.9537 72 65.4104 71.85 65.7704 71.55C66.1304 71.25 66.3771 70.88 66.5104 70.44L67.6104 70.8C67.4371 71.46 67.0704 72.0167 66.5104 72.47C65.9571 72.9233 65.2537 73.15 64.4004 73.15ZM73.4246 73L72.7546 71.22H69.7546L69.0946 73H67.8246L70.5846 65.91H71.9746L74.7346 73H73.4246ZM71.2546 67.21L70.1746 70.11H72.3346L71.2546 67.21ZM79.264 73L77.774 70.2H76.894V73H75.684V65.91H78.404C79.0707 65.91 79.6073 66.1167 80.014 66.53C80.4207 66.9367 80.624 67.4467 80.624 68.06C80.624 68.5667 80.4807 69 80.194 69.36C79.9073 69.72 79.5173 69.96 79.024 70.08L80.624 73H79.264ZM76.894 69.14H78.184C78.5507 69.14 78.844 69.0433 79.064 68.85C79.2907 68.65 79.404 68.3867 79.404 68.06C79.404 67.7267 79.2907 67.4633 79.064 67.27C78.844 67.07 78.5507 66.97 78.184 66.97H76.894V69.14ZM86.9947 67.04H84.6847V73H83.4847V67.04H81.1847V65.91H86.9947V67.04Z" fill="#696969"/>
<path d="M282.318 72.692L282.84 69.722C283.326 69.938 283.668 70.352 283.938 70.874L286.134 69.74C285.612 68.462 284.604 67.598 283.29 67.274L283.578 65.6H282.354L282.084 67.148C280.194 67.166 278.142 68.228 277.728 70.55C277.296 72.962 279.024 73.916 280.752 74.654L280.194 77.804C279.222 77.624 278.646 77.03 278.376 76.202L276.126 77.354C276.576 78.902 277.854 79.964 279.78 80.198L279.492 81.8H280.716L280.986 80.234C283.218 80.126 285 78.992 285.396 76.814C285.864 74.186 283.884 73.394 282.318 72.692ZM280.248 70.748C280.374 70.064 280.95 69.65 281.652 69.56L281.202 72.152C280.536 71.81 280.14 71.414 280.248 70.748ZM282.858 76.544C282.732 77.138 282.228 77.642 281.418 77.804L281.886 75.14C282.57 75.482 282.984 75.86 282.858 76.544ZM295.522 67.4L291.994 68.57L292.228 70.784L294.712 70.118L292.984 80H295.468L297.682 67.4H295.522ZM307.577 70.946C308.009 68.516 306.191 67.148 304.049 67.148C301.835 67.148 299.819 68.3 299.387 70.73C299.189 71.882 299.567 72.764 300.269 73.358C299.027 73.988 298.217 75.032 297.983 76.328C297.569 78.65 299.225 80.252 301.943 80.252C304.697 80.252 306.569 78.974 306.983 76.652C307.217 75.374 306.731 74.24 305.759 73.52C306.695 72.98 307.361 72.134 307.577 70.946ZM301.835 70.964C301.997 70.028 302.789 69.488 303.725 69.488C304.643 69.488 305.237 70.028 305.075 70.964C304.931 71.882 304.139 72.458 303.185 72.458C302.285 72.458 301.691 71.882 301.835 70.964ZM304.589 76.166C304.373 77.3 303.419 77.912 302.231 77.912C301.079 77.912 300.287 77.3 300.503 76.166C300.683 75.05 301.691 74.438 302.861 74.438C303.995 74.438 304.769 75.05 304.589 76.166ZM309.347 80.234C310.283 80.234 311.003 79.568 311.147 78.74C311.309 77.894 310.733 77.174 309.887 77.174C308.987 77.174 308.249 77.822 308.105 78.668C307.961 79.514 308.501 80.234 309.347 80.234ZM317.632 67.148C314.914 67.148 312.916 68.786 312.466 71.36C312.034 73.808 313.636 75.698 315.976 75.878L312.466 80H315.454L320.26 74.33C320.908 73.646 321.358 72.746 321.556 71.702C321.988 69.128 320.332 67.148 317.632 67.148ZM314.95 71.522C315.166 70.262 316.192 69.488 317.362 69.488C318.55 69.488 319.306 70.244 319.072 71.522C318.856 72.8 317.83 73.574 316.642 73.574C315.472 73.574 314.716 72.8 314.95 71.522ZM327.581 67.148C324.863 67.148 322.865 68.786 322.415 71.36C321.983 73.808 323.585 75.698 325.925 75.878L322.415 80H325.403L330.209 74.33C330.857 73.646 331.307 72.746 331.505 71.702C331.937 69.128 330.281 67.148 327.581 67.148ZM324.899 71.522C325.115 70.262 326.141 69.488 327.311 69.488C328.499 69.488 329.255 70.244 329.021 71.522C328.805 72.8 327.779 73.574 326.591 73.574C325.421 73.574 324.665 72.8 324.899 71.522Z" fill="#FF9401"/>
<path d="M4.1 34.8H6.62C7.92667 34.8 9 34.3867 9.84 33.56C10.6933 32.72 11.12 31.5133 11.12 29.94C11.12 28.3533 10.7 27.14 9.86 26.3C9.02 25.4467 7.94667 25.02 6.64 25.02H4.1V34.8ZM6.7 37H1.7V22.82H6.72C8.72 22.82 10.3667 23.4533 11.66 24.72C12.9667 25.9867 13.62 27.7267 13.62 29.94C13.62 32.14 12.9667 33.8667 11.66 35.12C10.3533 36.3733 8.7 37 6.7 37ZM17.5927 31.06H22.3727C22.346 30.4467 22.126 29.9333 21.7127 29.52C21.3127 29.1067 20.7327 28.9 19.9727 28.9C19.2793 28.9 18.7193 29.12 18.2927 29.56C17.866 29.9867 17.6327 30.4867 17.5927 31.06ZM22.6327 33.6L24.5927 34.22C24.3127 35.1133 23.786 35.8533 23.0127 36.44C22.2527 37.0133 21.3127 37.3 20.1927 37.3C18.806 37.3 17.626 36.8267 16.6527 35.88C15.6927 34.9333 15.2127 33.6667 15.2127 32.08C15.2127 30.5867 15.6793 29.36 16.6127 28.4C17.5593 27.44 18.6727 26.96 19.9527 26.96C21.446 26.96 22.6127 27.42 23.4527 28.34C24.2927 29.2467 24.7127 30.4733 24.7127 32.02C24.7127 32.4333 24.6927 32.68 24.6527 32.76H17.5327C17.5593 33.4933 17.826 34.1 18.3327 34.58C18.8527 35.06 19.4727 35.3 20.1927 35.3C21.446 35.3 22.2593 34.7333 22.6327 33.6ZM29.2497 37H26.9297V22.52H29.2497V37ZM34.5422 37H32.2422V27.26H34.4622V28.5C34.7289 28.02 35.1289 27.6467 35.6622 27.38C36.2089 27.1133 36.7689 26.98 37.3422 26.98C37.9955 26.98 38.5822 27.1267 39.1022 27.42C39.6222 27.7133 40.0089 28.14 40.2622 28.7C40.9422 27.5533 41.9955 26.98 43.4222 26.98C44.3822 26.98 45.1955 27.2933 45.8622 27.92C46.5289 28.5467 46.8622 29.4667 46.8622 30.68V37H44.6222V31.06C44.6222 30.46 44.4622 29.98 44.1422 29.62C43.8355 29.2467 43.3689 29.06 42.7422 29.06C42.1422 29.06 41.6555 29.2667 41.2822 29.68C40.9089 30.0933 40.7222 30.6067 40.7222 31.22V37H38.4422V31.06C38.4422 30.46 38.2822 29.98 37.9622 29.62C37.6555 29.2467 37.1889 29.06 36.5622 29.06C35.9489 29.06 35.4555 29.2667 35.0822 29.68C34.7222 30.08 34.5422 30.5933 34.5422 31.22V37ZM52.0431 34.4C52.5765 34.9467 53.2231 35.22 53.9831 35.22C54.7431 35.22 55.3831 34.9467 55.9031 34.4C56.4365 33.8533 56.7031 33.0933 56.7031 32.12C56.7031 31.16 56.4365 30.4133 55.9031 29.88C55.3831 29.3333 54.7431 29.06 53.9831 29.06C53.2231 29.06 52.5765 29.3333 52.0431 29.88C51.5231 30.4133 51.2631 31.16 51.2631 32.12C51.2631 33.08 51.5231 33.84 52.0431 34.4ZM53.9831 26.96C55.4498 26.96 56.6565 27.4467 57.6031 28.42C58.5631 29.3933 59.0431 30.6267 59.0431 32.12C59.0431 33.6133 58.5631 34.8533 57.6031 35.84C56.6565 36.8133 55.4498 37.3 53.9831 37.3C52.5298 37.3 51.3231 36.8133 50.3631 35.84C49.4165 34.8533 48.9431 33.6133 48.9431 32.12C48.9431 30.6267 49.4165 29.3933 50.3631 28.42C51.3231 27.4467 52.5298 26.96 53.9831 26.96ZM63.6052 31.38V37H61.2852V27.26H63.5452V28.56C63.8518 28.0267 64.2585 27.6333 64.7652 27.38C65.2852 27.1133 65.8385 26.98 66.4252 26.98C67.5718 26.98 68.4452 27.34 69.0452 28.06C69.6452 28.78 69.9452 29.7067 69.9452 30.84V37H67.6252V31.24C67.6252 30.5867 67.4652 30.0667 67.1452 29.68C66.8252 29.28 66.3185 29.08 65.6252 29.08C64.9852 29.08 64.4852 29.3 64.1252 29.74C63.7785 30.1667 63.6052 30.7133 63.6052 31.38ZM75.0695 37H72.7695V27.26H75.0695V37ZM72.8495 24.9C72.5562 24.6067 72.4095 24.2533 72.4095 23.84C72.4095 23.4267 72.5562 23.0733 72.8495 22.78C73.1429 22.4733 73.4962 22.32 73.9095 22.32C74.3362 22.32 74.6962 22.4667 74.9895 22.76C75.2829 23.0533 75.4295 23.4133 75.4295 23.84C75.4295 24.2533 75.2829 24.6067 74.9895 24.9C74.6962 25.1933 74.3362 25.34 73.9095 25.34C73.4962 25.34 73.1429 25.1933 72.8495 24.9ZM82.3025 29.1C81.5558 29.1 80.9225 29.3733 80.4025 29.92C79.8825 30.4533 79.6225 31.1867 79.6225 32.12C79.6225 33.0667 79.8825 33.8133 80.4025 34.36C80.9358 34.9067 81.5825 35.18 82.3425 35.18C83.0225 35.18 83.5625 35 83.9625 34.64C84.3758 34.2667 84.6492 33.8467 84.7825 33.38L86.8225 34.12C86.5558 34.9867 86.0358 35.7333 85.2625 36.36C84.5025 36.9867 83.5292 37.3 82.3425 37.3C80.9158 37.3 79.7158 36.8067 78.7425 35.82C77.7825 34.8333 77.3025 33.6 77.3025 32.12C77.3025 30.6267 77.7758 29.3933 78.7225 28.42C79.6825 27.4467 80.8692 26.96 82.2825 26.96C83.4958 26.96 84.4825 27.2733 85.2425 27.9C86.0158 28.5267 86.5158 29.28 86.7425 30.16L84.6625 30.92C84.5292 30.4133 84.2692 29.9867 83.8825 29.64C83.5092 29.28 82.9825 29.1 82.3025 29.1ZM91.1252 34.4C91.6585 34.9467 92.3052 35.22 93.0652 35.22C93.8252 35.22 94.4652 34.9467 94.9852 34.4C95.5185 33.8533 95.7852 33.0933 95.7852 32.12C95.7852 31.16 95.5185 30.4133 94.9852 29.88C94.4652 29.3333 93.8252 29.06 93.0652 29.06C92.3052 29.06 91.6585 29.3333 91.1252 29.88C90.6052 30.4133 90.3452 31.16 90.3452 32.12C90.3452 33.08 90.6052 33.84 91.1252 34.4ZM93.0652 26.96C94.5318 26.96 95.7385 27.4467 96.6852 28.42C97.6452 29.3933 98.1252 30.6267 98.1252 32.12C98.1252 33.6133 97.6452 34.8533 96.6852 35.84C95.7385 36.8133 94.5318 37.3 93.0652 37.3C91.6118 37.3 90.4052 36.8133 89.4452 35.84C88.4985 34.8533 88.0252 33.6133 88.0252 32.12C88.0252 30.6267 88.4985 29.3933 89.4452 28.42C90.4052 27.4467 91.6118 26.96 93.0652 26.96ZM114.848 26.14L112.688 26.82C112.595 26.2733 112.321 25.7733 111.868 25.32C111.415 24.8667 110.761 24.64 109.908 24.64C109.201 24.64 108.615 24.84 108.148 25.24C107.695 25.64 107.468 26.12 107.468 26.68C107.468 27.6533 108.021 28.26 109.128 28.5L111.168 28.92C112.395 29.16 113.341 29.6467 114.008 30.38C114.675 31.1133 115.008 31.9867 115.008 33C115.008 34.1733 114.555 35.1867 113.648 36.04C112.755 36.88 111.535 37.3 109.988 37.3C108.321 37.3 107.021 36.8667 106.088 36C105.155 35.12 104.628 34.1 104.508 32.94L106.748 32.3C106.828 33.1 107.148 33.7733 107.708 34.32C108.268 34.8667 109.028 35.14 109.988 35.14C110.815 35.14 111.448 34.96 111.888 34.6C112.341 34.2267 112.568 33.7533 112.568 33.18C112.568 32.7133 112.401 32.3133 112.068 31.98C111.735 31.6333 111.268 31.3933 110.668 31.26L108.668 30.84C107.561 30.6133 106.681 30.1533 106.028 29.46C105.388 28.7667 105.068 27.9 105.068 26.86C105.068 25.6733 105.541 24.6533 106.488 23.8C107.435 22.9467 108.568 22.52 109.888 22.52C111.395 22.52 112.548 22.8867 113.348 23.62C114.148 24.34 114.648 25.18 114.848 26.14ZM120.202 24.28V27.26H122.222V29.32H120.202V33.84C120.202 34.2667 120.302 34.58 120.502 34.78C120.702 34.9667 121.015 35.06 121.442 35.06C121.708 35.06 121.975 35.0333 122.242 34.98V36.9C121.895 37.0467 121.422 37.12 120.822 37.12C119.915 37.12 119.202 36.8667 118.682 36.36C118.162 35.84 117.902 35.1267 117.902 34.22V29.32H116.102V27.26H116.602C117.095 27.26 117.468 27.12 117.722 26.84C117.975 26.56 118.102 26.1933 118.102 25.74V24.28H120.202ZM126.128 31.06H130.908C130.881 30.4467 130.661 29.9333 130.248 29.52C129.848 29.1067 129.268 28.9 128.508 28.9C127.814 28.9 127.254 29.12 126.828 29.56C126.401 29.9867 126.168 30.4867 126.128 31.06ZM131.168 33.6L133.128 34.22C132.848 35.1133 132.321 35.8533 131.548 36.44C130.788 37.0133 129.848 37.3 128.728 37.3C127.341 37.3 126.161 36.8267 125.188 35.88C124.228 34.9333 123.748 33.6667 123.748 32.08C123.748 30.5867 124.214 29.36 125.148 28.4C126.094 27.44 127.208 26.96 128.488 26.96C129.981 26.96 131.148 27.42 131.988 28.34C132.828 29.2467 133.248 30.4733 133.248 32.02C133.248 32.4333 133.228 32.68 133.188 32.76H126.068C126.094 33.4933 126.361 34.1 126.868 34.58C127.388 35.06 128.008 35.3 128.728 35.3C129.981 35.3 130.794 34.7333 131.168 33.6ZM134.865 34.36C134.865 33.5333 135.132 32.8733 135.665 32.38C136.212 31.8733 136.925 31.5533 137.805 31.42L140.305 31.04C140.785 30.9733 141.025 30.74 141.025 30.34C141.025 29.9 140.872 29.5467 140.565 29.28C140.258 29 139.798 28.86 139.185 28.86C138.598 28.86 138.132 29.0267 137.785 29.36C137.438 29.68 137.238 30.1 137.185 30.62L135.065 30.14C135.158 29.26 135.578 28.5133 136.325 27.9C137.072 27.2733 138.018 26.96 139.165 26.96C140.578 26.96 141.618 27.3 142.285 27.98C142.965 28.66 143.305 29.5333 143.305 30.6V35.44C143.305 36.08 143.345 36.6 143.425 37H141.265C141.198 36.8 141.165 36.3867 141.165 35.76C140.525 36.7867 139.525 37.3 138.165 37.3C137.178 37.3 136.378 37.0133 135.765 36.44C135.165 35.8533 134.865 35.16 134.865 34.36ZM138.605 35.48C139.325 35.48 139.905 35.2867 140.345 34.9C140.798 34.5 141.025 33.8533 141.025 32.96V32.52L138.485 32.9C137.618 33.0467 137.185 33.4867 137.185 34.22C137.185 34.5667 137.312 34.8667 137.565 35.12C137.818 35.36 138.165 35.48 138.605 35.48ZM155.229 27.26L151.229 31.38L155.309 37H152.469L149.609 33.02L148.409 34.28V37H146.109V22.52H148.409V31.2L152.149 27.26H155.229ZM163.509 32.1C163.509 33.0333 163.749 33.7867 164.229 34.36C164.709 34.92 165.343 35.2 166.129 35.2C166.889 35.2 167.509 34.9133 167.989 34.34C168.469 33.7667 168.709 33.0133 168.709 32.08C168.709 31.16 168.476 30.4267 168.009 29.88C167.543 29.3333 166.923 29.06 166.149 29.06C165.376 29.06 164.743 29.34 164.249 29.9C163.756 30.4467 163.509 31.18 163.509 32.1ZM170.949 22.52V35.22C170.949 35.8733 170.983 36.4667 171.049 37H168.829C168.763 36.6267 168.729 36.2067 168.729 35.74C168.489 36.18 168.116 36.54 167.609 36.82C167.103 37.1 166.523 37.24 165.869 37.24C164.483 37.24 163.356 36.7533 162.489 35.78C161.623 34.8067 161.189 33.58 161.189 32.1C161.189 30.6733 161.623 29.4667 162.489 28.48C163.369 27.4933 164.483 27 165.829 27C166.603 27 167.223 27.14 167.689 27.42C168.169 27.7 168.503 28.0267 168.689 28.4V22.52H170.949ZM176.28 37H173.98V27.26H176.28V37ZM174.06 24.9C173.767 24.6067 173.62 24.2533 173.62 23.84C173.62 23.4267 173.767 23.0733 174.06 22.78C174.354 22.4733 174.707 22.32 175.12 22.32C175.547 22.32 175.907 22.4667 176.2 22.76C176.494 23.0533 176.64 23.4133 176.64 23.84C176.64 24.2533 176.494 24.6067 176.2 24.9C175.907 25.1933 175.547 25.34 175.12 25.34C174.707 25.34 174.354 25.1933 174.06 24.9ZM178.413 34.36L180.433 33.8C180.473 34.2667 180.667 34.66 181.013 34.98C181.36 35.3 181.827 35.46 182.413 35.46C182.867 35.46 183.22 35.3533 183.473 35.14C183.74 34.9267 183.873 34.66 183.873 34.34C183.873 33.78 183.493 33.42 182.733 33.26L181.293 32.94C180.453 32.7533 179.807 32.4067 179.353 31.9C178.9 31.3933 178.673 30.7933 178.673 30.1C178.673 29.2467 179.02 28.5133 179.713 27.9C180.407 27.2733 181.253 26.96 182.253 26.96C182.893 26.96 183.46 27.0533 183.953 27.24C184.447 27.4267 184.827 27.6733 185.093 27.98C185.373 28.2733 185.587 28.56 185.733 28.84C185.88 29.12 185.973 29.4 186.013 29.68L184.053 30.24C184 29.8667 183.827 29.5333 183.533 29.24C183.253 28.9333 182.827 28.78 182.253 28.78C181.853 28.78 181.52 28.8933 181.253 29.12C180.987 29.3333 180.853 29.5933 180.853 29.9C180.853 30.4467 181.18 30.7867 181.833 30.92L183.313 31.22C184.22 31.42 184.913 31.78 185.393 32.3C185.873 32.82 186.113 33.4467 186.113 34.18C186.113 34.9933 185.787 35.72 185.133 36.36C184.493 36.9867 183.593 37.3 182.433 37.3C181.767 37.3 181.167 37.2 180.633 37C180.113 36.8 179.7 36.5467 179.393 36.24C179.1 35.92 178.867 35.6067 178.693 35.3C178.533 34.98 178.44 34.6667 178.413 34.36ZM190.734 31.28V37H188.414V22.52H190.734V28.2C191.361 27.3867 192.287 26.98 193.514 26.98C194.661 26.98 195.541 27.34 196.154 28.06C196.767 28.78 197.074 29.7067 197.074 30.84V37H194.754V31.24C194.754 30.5867 194.594 30.0667 194.274 29.68C193.954 29.28 193.447 29.08 192.754 29.08C192.141 29.08 191.654 29.2867 191.294 29.7C190.947 30.1133 190.761 30.64 190.734 31.28Z" fill="#2E2E2E"/>
<path d="M315.768 31.176C316.536 30.68 317.048 29.88 317.048 28.808C317.048 26.648 315.352 25.592 313.496 25.592C311.624 25.592 309.944 26.648 309.944 28.808C309.944 29.88 310.456 30.68 311.208 31.176C310.184 31.752 309.56 32.728 309.56 33.896C309.56 35.976 311.16 37.208 313.496 37.208C315.832 37.208 317.416 35.976 317.416 33.896C317.416 32.712 316.808 31.752 315.768 31.176ZM313.496 27.336C314.424 27.336 315.208 27.848 315.208 28.888C315.208 29.88 314.424 30.44 313.496 30.44C312.552 30.44 311.784 29.88 311.784 28.888C311.784 27.848 312.552 27.336 313.496 27.336ZM313.496 35.464C312.28 35.464 311.4 34.856 311.4 33.72C311.4 32.568 312.28 31.976 313.496 31.976C314.696 31.976 315.576 32.568 315.576 33.72C315.576 34.856 314.696 35.464 313.496 35.464ZM320.017 37.192C320.673 37.192 321.217 36.648 321.217 35.992C321.217 35.32 320.673 34.792 320.017 34.792C319.345 34.792 318.817 35.32 318.817 35.992C318.817 36.648 319.345 37.192 320.017 37.192ZM326.603 37.208C329.419 37.208 331.003 34.856 331.003 31.4C331.003 27.944 329.419 25.592 326.603 25.592C323.787 25.592 322.203 27.944 322.203 31.4C322.203 34.856 323.787 37.208 326.603 37.208ZM326.603 35.416C324.955 35.416 324.043 33.976 324.043 31.4C324.043 28.824 324.955 27.384 326.603 27.384C328.267 27.384 329.163 28.824 329.163 31.4C329.163 33.976 328.267 35.416 326.603 35.416Z" fill="#818181"/>
<path d="M299.5 26L300.735 29.8004H304.731L301.498 32.1492L302.733 35.9496L299.5 33.6008L296.267 35.9496L297.502 32.1492L294.269 29.8004H298.265L299.5 26Z" fill="#818181"/>
</svg>
