<svg width="245" height="115" viewBox="0 0 245 115" fill="none" xmlns="http://www.w3.org/2000/svg">
<g filter="url(#filter0_d_401_248)">
<circle cx="57.5" cy="47.5" r="17.5" fill="white"/>
<path d="M59 45.9767H62V48.965H59V55.9378H56V48.965H53V45.9767H56V44.7266C56 43.5422 56.374 42.046 57.118 41.2282C57.862 40.4084 58.791 40 59.904 40H62V42.9883H59.9C59.402 42.9883 59 43.3888 59 43.8838V45.9767Z" fill="#2E2E2E"/>
<circle cx="122.5" cy="47.5" r="17.5" fill="white"/>
<path d="M121.998 43.8801C119.726 43.8801 117.893 45.7062 117.893 47.9689C117.893 50.2316 119.726 52.0577 121.998 52.0577C124.269 52.0577 126.103 50.2316 126.103 47.9689C126.103 45.7062 124.269 43.8801 121.998 43.8801ZM121.998 50.6263C120.529 50.6263 119.33 49.4322 119.33 47.9689C119.33 46.5056 120.529 45.3115 121.998 45.3115C123.467 45.3115 124.666 46.5056 124.666 47.9689C124.666 49.4322 123.467 50.6263 121.998 50.6263ZM126.271 42.7597C125.74 42.7597 125.312 43.1863 125.312 43.7146C125.312 44.2429 125.74 44.6695 126.271 44.6695C126.801 44.6695 127.229 44.2449 127.229 43.7146C127.229 43.5892 127.205 43.4649 127.157 43.349C127.109 43.2331 127.038 43.1277 126.949 43.039C126.86 42.9503 126.754 42.88 126.638 42.8321C126.521 42.7841 126.397 42.7595 126.271 42.7597ZM129.999 47.9689C129.999 46.8685 130.009 45.778 129.947 44.6795C129.885 43.4036 129.593 42.2713 128.656 41.3383C127.718 40.4033 126.583 40.1142 125.302 40.0524C124.197 39.9906 123.103 40.0006 122 40.0006C120.895 40.0006 119.8 39.9906 118.698 40.0524C117.417 40.1142 116.28 40.4053 115.343 41.3383C114.405 42.2733 114.115 43.4036 114.053 44.6795C113.991 45.78 114.001 46.8704 114.001 47.9689C114.001 49.0674 113.991 50.1598 114.053 51.2583C114.115 52.5342 114.407 53.6665 115.343 54.5995C116.282 55.5345 117.417 55.8236 118.698 55.8854C119.802 55.9472 120.897 55.9372 122 55.9372C123.105 55.9372 124.199 55.9472 125.302 55.8854C126.583 55.8236 127.72 55.5325 128.656 54.5995C129.595 53.6645 129.885 52.5342 129.947 51.2583C130.011 50.1598 129.999 49.0694 129.999 47.9689ZM128.238 52.6697C128.092 53.0326 127.916 53.3037 127.634 53.5828C127.351 53.8639 127.081 54.0393 126.717 54.1849C125.664 54.6015 123.165 54.5078 121.998 54.5078C120.831 54.5078 118.329 54.6015 117.277 54.1869C116.913 54.0413 116.64 53.8659 116.36 53.5848C116.078 53.3037 115.902 53.0346 115.756 52.6717C115.339 51.6211 115.434 49.1312 115.434 47.9689C115.434 46.8067 115.339 44.3147 115.756 43.2661C115.902 42.9032 116.078 42.6321 116.36 42.353C116.642 42.0739 116.913 41.8965 117.277 41.7509C118.329 41.3363 120.831 41.43 121.998 41.43C123.165 41.43 125.666 41.3363 126.719 41.7509C127.083 41.8965 127.355 42.0719 127.636 42.353C127.918 42.6341 128.094 42.9032 128.24 43.2661C128.656 44.3147 128.562 46.8067 128.562 47.9689C128.562 49.1312 128.656 51.6211 128.238 52.6697Z" fill="#2E2E2E"/>
<circle cx="187.5" cy="47.5" r="17.5" fill="white"/>
<path d="M195.633 43.9625C195.646 44.1368 195.646 44.3102 195.646 44.4835C195.646 49.7878 191.593 55.8999 184.186 55.8999C181.904 55.8999 179.784 55.2415 178 54.0979C178.324 54.1348 178.636 54.1477 178.973 54.1477C180.786 54.1521 182.548 53.5482 183.974 52.4334C183.133 52.4183 182.319 52.142 181.643 51.6433C180.968 51.1445 180.466 50.4481 180.207 49.6513C180.456 49.6882 180.706 49.7131 180.968 49.7131C181.329 49.7131 181.692 49.6633 182.029 49.5766C181.117 49.3931 180.296 48.9006 179.708 48.1827C179.119 47.4649 178.798 46.566 178.799 45.639V45.5892C179.336 45.887 179.959 46.0733 180.619 46.0982C180.066 45.7322 179.613 45.2356 179.299 44.6526C178.986 44.0697 178.822 43.4185 178.823 42.7572C178.823 42.0121 179.022 41.3288 179.371 40.7331C180.383 41.9733 181.646 42.9879 183.076 43.7112C184.507 44.4344 186.075 44.8503 187.677 44.9317C187.615 44.6329 187.577 44.3231 187.577 44.0123C187.577 43.4853 187.681 42.9635 187.883 42.4766C188.085 41.9897 188.382 41.5472 188.756 41.1746C189.13 40.802 189.574 40.5064 190.063 40.3049C190.552 40.1033 191.076 39.9997 191.605 40C192.765 40 193.812 40.4841 194.548 41.2671C195.45 41.0933 196.315 40.7654 197.104 40.2978C196.803 41.225 196.174 42.0112 195.333 42.5092C196.133 42.4183 196.914 42.2088 197.652 41.8876C197.101 42.6876 196.419 43.3891 195.633 43.9625Z" fill="#2E2E2E"/>
</g>
<defs>
<filter id="filter0_d_401_248" x="0" y="0" width="245" height="115" filterUnits="userSpaceOnUse" color-interpolation-filters="sRGB">
<feFlood flood-opacity="0" result="BackgroundImageFix"/>
<feColorMatrix in="SourceAlpha" type="matrix" values="0 0 0 0 0 0 0 0 0 0 0 0 0 0 0 0 0 0 127 0" result="hardAlpha"/>
<feOffset dy="10"/>
<feGaussianBlur stdDeviation="20"/>
<feColorMatrix type="matrix" values="0 0 0 0 1 0 0 0 0 0.580392 0 0 0 0 0.00392157 0 0 0 0.2 0"/>
<feBlend mode="normal" in2="BackgroundImageFix" result="effect1_dropShadow_401_248"/>
<feBlend mode="normal" in="SourceGraphic" in2="effect1_dropShadow_401_248" result="shape"/>
</filter>
</defs>
</svg>
